<?xml version="1.0" encoding="utf-8"?>
<!-- Generator: Adobe Illustrator 27.5.0, SVG Export Plug-In . SVG Version: 6.00 Build 0)  -->
<svg version="1.1" id="Capa_1" xmlns="http://www.w3.org/2000/svg" xmlns:xlink="http://www.w3.org/1999/xlink" x="0px" y="0px"
	 viewBox="0 0 90 90" style="enable-background:new 0 0 90 90;" xml:space="preserve">
<style type="text/css">
	.st0{fill:#FEEB15;}
</style>
<g>
	<path class="st0" d="M56.5,37.5c0,1.1-0.9,2-2,2c-1.1,0-2-0.9-2-2c0-1.1,0.9-2,2-2C55.7,35.5,56.5,36.4,56.5,37.5z M54.1,46.4
		c0,4.6-3.7,8.3-8.3,8.3c-4.6,0-8.3-3.7-8.3-8.3c0-4.6,3.7-8.3,8.3-8.3C50.3,38.1,54.1,41.8,54.1,46.4z M51.1,46.4
		c0-2.9-2.4-5.3-5.3-5.3c-2.9,0-5.3,2.4-5.3,5.3c0,2.9,2.4,5.3,5.3,5.3C48.7,51.7,51.1,49.3,51.1,46.4z M62.6,39.7
		c0-5.6-4.6-10.2-10.2-10.2H38.5c-5.6,0-10.2,4.6-10.2,10.2v13.9c0,5.6,4.6,10.2,10.2,10.2h13.9c5.6,0,10.2-4.6,10.2-10.2V39.7z
		 M59.3,53.4c0,3.9-3.1,7-7,7H38.7c-3.9,0-7-3.1-7-7V39.8c0-3.9,3.1-7,7-7h13.6c3.9,0,7,3.1,7,7V53.4z"/>
	<g>
		<path class="st0" d="M68.3,84.6c-0.5,0-0.3,0.6-0.4,0.7C68.8,85.2,68.3,84.4,68.3,84.6z"/>
		<path class="st0" d="M75.5,81l0,0.3c0.2-0.4,0.4-0.8,0.6-1.2C76,80.4,75.7,80.7,75.5,81z"/>
		<path class="st0" d="M80.5,76c-0.3,0-0.6,0.1-0.7,0.3c-0.2,0.2-0.4,0.5-0.5,0.8c-0.1,0.3-0.3,0.7-0.5,1c-0.2,0.3-0.4,0.6-0.7,0.7
			l-0.3-0.1c0.1,0.3,0.1,0.7,0.2,1.1c0.3-0.3,0.5-0.6,0.8-1c0.2-0.4,0.5-0.7,0.7-1.1C79.7,77.1,80.1,76.4,80.5,76z"/>
		<path class="st0" d="M84.4,73.3c-0.2,0.1-0.3-0.2-0.3-0.2c0,0,0.1,0.2-0.2,1.1c0.1-0.1,0.1-0.1,0.2-0.1
			C84.2,73.9,84.3,73.7,84.4,73.3z"/>
		<path class="st0" d="M84.1,74.1C83.9,74.9,84.7,73.6,84.1,74.1L84.1,74.1z"/>
		<path class="st0" d="M84.8,70.1c0.1,0.4,0.2,0.8,0.2,1.2c0.3-0.2,0.5-1.2,0.6-0.8C85.5,69.2,85.2,69.5,84.8,70.1z"/>
		<path class="st0" d="M84,69l0.1,0.6C84.3,69.5,84.3,69.3,84,69z"/>
		<path class="st0" d="M84.4,70.8c-0.1-0.4-0.1-0.8-0.2-1.2c-0.2,0.1-0.6,0.1,0.1,0.6C83.9,70,84.2,70.2,84.4,70.8z"/>
		<path class="st0" d="M84.1,71.4c-0.4,0.6-0.7,1.3-0.8,0.1c-0.2,1-0.1,1.5,0.2,1.5C83.6,73,84,72.5,84.1,71.4z"/>
		<path class="st0" d="M79.7,75.1l-0.6,0.4c0,0.2,0,0.5,0,0.7C79.1,75.9,80,75.3,79.7,75.1z"/>
		<path class="st0" d="M85.5,64.5c-0.2-0.1-0.6,0.3-1,0.3l0.3,0.6C84.9,65.1,85.1,64.5,85.5,64.5z"/>
		<path class="st0" d="M84.5,64.8l-0.4-0.9C84,64.7,84.2,64.9,84.5,64.8z"/>
		<path class="st0" d="M82.8,68.8c0.3,0.6,0.5,1.3,0.7,1.9c-0.1-0.8-0.4-1.6-0.7-2.3L82.8,68.8z"/>
		<polygon class="st0" points="85.5,61 86,61.5 85.2,60.5 		"/>
		<path class="st0" d="M85.4,58.6c0.5,0.4,0.8-0.5,1.1-0.1c-0.1-0.6-0.5-1.2-0.8-1.7C85.8,57.4,85.8,57.9,85.4,58.6z"/>
		<path class="st0" d="M85.1,56c0.1,0.3,0.3,0.5,0.5,0.8C85.5,56.6,85.4,56.3,85.1,56z"/>
		<path class="st0" d="M84.2,62.3c0.1-0.1,0.5-0.2,0.7-0.7L84.2,62C84.2,62.1,84.2,62.2,84.2,62.3z"/>
		<path class="st0" d="M84.2,62L84.2,62c0-0.4,0.1-0.7,0.1-0.8C84.2,61.3,84.2,61.5,84.2,62z"/>
		<path class="st0" d="M84.2,62.4C84.2,62.4,84.2,62.4,84.2,62.4C84.1,62.4,84.1,62.4,84.2,62.4z"/>
		<path class="st0" d="M83.4,66.3c-0.4-0.5-0.8-1.7-1.4-0.6C82.5,66.1,82.8,65.5,83.4,66.3z"/>
		<path class="st0" d="M83.4,62.9l-0.2,1c0.2,0,0.4-0.2,0.6,0.1L83.4,62.9z"/>
		<polygon class="st0" points="83.1,62.4 83.4,62.9 83.4,62.5 		"/>
		<path class="st0" d="M84.5,57.7c-0.3-0.4-0.3-0.9-0.4-1.4c-0.1,0.6-0.2,1.1-0.2,1.7C84.1,58.1,84.5,58.3,84.5,57.7z"/>
		<path class="st0" d="M84.3,59.8C84.3,59.7,84.2,59.7,84.3,59.8C84.2,59.7,84.2,59.8,84.3,59.8z"/>
		<path class="st0" d="M84.1,51.2L84,51.3c0,0,0.1,0,0.1,0L84.1,51.2z"/>
		<path class="st0" d="M83.8,58.1c-0.1,0.4,0,0.7,0.2,0.9c-0.1-0.3-0.1-0.6-0.1-1C83.8,57.9,83.7,57.9,83.8,58.1z"/>
		<path class="st0" d="M84.8,54.6c-0.1,0.2-0.3,0.5-0.4,0.7C84.6,55.1,85,54.7,84.8,54.6z"/>
		<path class="st0" d="M84.4,59.5C84.4,59.6,84.4,59.6,84.4,59.5C84.6,59.5,84.5,59.5,84.4,59.5z"/>
		<path class="st0" d="M84.4,59.5c-0.1-0.2-0.3-0.4-0.4-0.6c0.1,0.3,0.1,0.5,0.2,0.7C84.3,59.6,84.4,59.6,84.4,59.5z"/>
		<path class="st0" d="M79.7,49.6c0.6,0.1,1.2,1.2,0.5,2.1c0.5,0.9,2.5,0.3,3.7-0.5c-0.3,0-0.5,0-0.9-1c-0.3,0.3-0.8,2.1-1.4,1.3
			c-0.3-1.3,0.2-1,0.6-1.7c-0.8,0.5-1.1-1.6-2.3-1.3l0.4,1.1C80.2,49.7,79.9,49.3,79.7,49.6z"/>
		<path class="st0" d="M83.9,53.1l0.1,0.4c0.1-0.5,0.4-0.8,0.9-1.4c-0.3-0.7-0.5-0.8-0.8-0.8l-0.1,2L83.9,53.1z"/>
		<path class="st0" d="M84,55.3c-0.7-0.3-1-1.3-1.7-0.7c0,1.2,0.6,0.8,0.9,1.5C83,54.2,83.5,56.6,84,55.3c0,0.4,0.1,0.7,0.1,1
			c0.1-0.3,0.2-0.7,0.3-1c0,0,0,0,0,0l0,0l0,0c-0.1,0.1-0.1,0.1-0.1,0c0,0,0,0,0,0C84.2,55.3,84.1,55.3,84,55.3
			c0.1-0.5,0.2-0.1,0.3,0.1c0,0,0.1,0,0.1,0c0,0,0,0,0,0L84,53.5C83.9,53.9,83.9,54.4,84,55.3z"/>
		<path class="st0" d="M80.6,64.7c0.1-0.1,0.1-0.1,0.2-0.1C80.6,64.5,80.6,64.5,80.6,64.7z"/>
		<path class="st0" d="M81,63.9c0.1,0.1,0.4,0.3,0.3,0.7c-0.2,0.4-0.3,0-0.6,0c0.2,0.3,0.5,0.9,0.8,0.1l-0.1-0.1
			c0.2-0.8,1.1-1.7,1.2-1.6C82,63.2,81.6,63.4,81,63.9z"/>
		<path class="st0" d="M82.3,59.6L82,58l-0.6,0.8l0.4,0C81.6,59.6,82,59.4,82.3,59.6z"/>
		<polygon class="st0" points="84.4,51 85.2,51.2 84.1,50.3 		"/>
		<polygon class="st0" points="84.3,49 85,49 84.6,48.5 		"/>
		<path class="st0" d="M13.1,25l0.2,0.5C13.2,25.3,13.1,25.1,13.1,25z"/>
		<path class="st0" d="M13.1,21.8l-0.3-0.1C13,21.9,13.1,21.9,13.1,21.8z"/>
		<path class="st0" d="M64.2,5.8c-0.7-0.6-1.4-1.5-1.3-0.8l0.2,0.7C63.5,5.6,63.9,5.6,64.2,5.8z"/>
		<path class="st0" d="M30,9.9c0.1,0.1,0.1,0.1,0.2,0.2c0.2-0.2,0.3-0.5,0.5-0.7C30.4,9.6,30.2,9.7,30,9.9z"/>
		<path class="st0" d="M29.5,12.8l-0.9-0.4C28.8,12.5,29.1,12.6,29.5,12.8z"/>
		<path class="st0" d="M13.8,43.2l0.7,0.5C14.5,42.9,14.2,43.3,13.8,43.2z"/>
		<path class="st0" d="M84.1,28.1c0.3-0.6,0.4-1,0.4-1.4C84.1,27.4,83.5,27.9,84.1,28.1z"/>
		<path class="st0" d="M5.8,23.7C5.9,24,6,24.1,6.2,24.1C6.1,23.8,5.9,23.7,5.8,23.7z"/>
		<path class="st0" d="M84.5,25c-0.1,0.1-0.1,0.2-0.2,0.3c0.1,0.4,0.2,0.8,0.2,1.4C84.8,26.2,85,25.6,84.5,25z"/>
		<path class="st0" d="M43.1,76.8c0,0,0.1,0,0.1,0.1C43.3,76.8,43.2,76.8,43.1,76.8z"/>
		<path class="st0" d="M62.3,83.8c-0.2,0-0.5,0-0.8,0.1C61.7,83.9,61.9,83.9,62.3,83.8z"/>
		<path class="st0" d="M84.6,40.8C84.7,41.2,84.7,40.8,84.6,40.8L84.6,40.8z"/>
		<path class="st0" d="M81.9,42.9c-0.1-0.1-0.2-0.2-0.3-0.2C81.8,42.7,81.9,42.8,81.9,42.9z"/>
		<path class="st0" d="M80.1,20.7C80.1,20.7,80.1,20.7,80.1,20.7C80,20.8,80,20.8,80.1,20.7z"/>
		<path class="st0" d="M84.3,41.4c0.1-0.2,0.2-0.3,0.2-0.6C84.5,41,84.4,41.1,84.3,41.4z"/>
		<path class="st0" d="M84.7,41.3c0,0.1,0,0.3-0.1,0.4C84.7,41.8,84.8,41.7,84.7,41.3z"/>
		<path class="st0" d="M84.6,40.2c0,0.2,0,0.5-0.1,0.7c0-0.1,0.1-0.1,0.1-0.1C84.6,40.6,84.6,40.5,84.6,40.2z"/>
		<path class="st0" d="M12.4,72.8C12.4,72.8,12.4,72.9,12.4,72.8C12.8,73.1,12.7,73,12.4,72.8z"/>
		<path class="st0" d="M53,13C53,12.9,53,12.9,53,13C53,12.9,53,12.9,53,13L53,13z"/>
		<path class="st0" d="M51.4,13.5c0.7-0.9,1-0.8,1.5-0.6l-0.5-2L51.4,13.5z"/>
		<path class="st0" d="M13.3,33l0.6-1.1c1,1.3,0.7,2.3,1.5,1.2c-2.2-0.2-0.2-4.2-2.4-4.4l0.5-0.7c0,0.2,0.1,0.2,0.1,0.4
			c1-1.4-1.6-1-1.3-2.8c0.2-0.6,0.5-1.1,0.7-0.6l-0.5-1.4c0-0.4,0.4-0.3,0.4,0.1l-0.1-1.1l0-0.5l0-0.4l0.1,0c-0.3-0.2-0.8-0.8-1-1.1
			c0.4-0.4,0.2,0.2,0.5,0.2c-0.1-0.3-0.3-0.7-0.3-1c0.3-0.1,0.6,0,0.7,0.3c0.1,0.2,0.2,0.6,0.1,0.9c1.1-0.2,1-0.4,0.8-0.7
			c-0.1-0.2-0.2-0.4-0.2-0.6c0-0.2,0.2-0.5,0.6-0.8l0,0.8c0.7,0,0.9-0.2,1.1-0.4c0.3-0.2,0.4-0.4,0.9-0.5c-0.1,0-0.3,0-0.6,0
			c-0.3,0-0.5,0-0.8,0.1c-0.6,0-1.1,0-1.2-0.5c0.3-0.2,0.5-0.4,0.4-1.1c0.3,0.2,0.5,0.2,0.6,0c0.2-0.1,0.3-0.4,0.4-0.6l0.8,0.7
			c0.1-0.6-0.3-0.9-0.3-1.5c0.6-0.4,1.2,0.1,1.7,0.5c0.4-0.2,0.1-0.4-0.2-0.6c-0.3-0.2-0.7-0.4-0.2-0.9c1-0.2,1.3-0.8,2.3-1.8
			c0.8,0.2,0,0.6,0.4,0.8c0.1-0.3,0.2-0.6,0.4-0.9c0.2,0,0.2,0.2,0.2,0.4c0.5-0.4-0.2-1,0.7-1.4c0-0.3,0.2-0.3,0.4-0.3
			c0.1,0,0.2,0.1,0.4,0.2c0.1,0.1,0.3,0.2,0.5,0.3c0.7,0.4,1.5,0.8,2.2,0.1c0.3,0.3-0.2,0.6-0.1,1c1.9-0.8,1.6-0.6,3.2-1.7l1.3,0.7
			c-1-0.8,0.3-1.7,1.4-2.4c-0.3-0.4-0.6-0.7-0.8-0.8l1.7-0.5c0.2,0.2,0,0.5-0.2,0.9c0.1-0.1,0.2-0.2,0.3-0.2c0.6,0.4,0.3,1-0.1,1.5
			c-0.2-0.2-0.4-0.4-0.6-0.6c-0.4,0.6-0.8,1.3-0.7,1.9c0.1-0.1,0.3-0.2,0.6-0.3c-0.1,0.2-0.2,0.3-0.1,0.4c0.1,0.1,0.2-0.1,0.5-0.4
			l0.4,1.1l0.1-0.5l2.3,0.7c1.6-1.1,3-2.8,5.6-3.3c-0.6,0.8-0.1,1.4-0.2,2.3c-0.7-1-2,0.4-3.3,0.2c0.7,0.1,0.5,0.6,0.4,0.7l2.4-0.9
			c-0.1,0.8,0.5,0.6,1.1,0.9c-0.5-1.6,1.8-1.1,2.7-1.5c0.1,0.5-0.2,1.1-1.4,1c1.3,1.2,1.7-1.9,3-0.9c-0.3,0-0.4-0.1-0.6,0.2
			c0.7-0.5,2.3-0.1,1.9,0.4l-0.3,0c1.9,0.2,5.8,0,6.1-1.3c0,0.2-0.3,1.6-0.4,1.9l3.4-4.6c-0.3,1.2,0.9,3.9-0.7,4.6
			c0.5,0.2,1,0.4,2-0.1c-0.3-0.2-0.8-1.7-0.4-1.8c1.2,1.3,0.8,0.7,2.3,1.8c-0.5-0.2,0.1-2.1,0.8-2c-0.1,0.3,0.1,1.8-0.2,2l1.8-1.8
			c-0.5,0.3-0.1,1.5,0.3,2c-0.2-0.4,1.6,0,2.1-0.1L61,12.5c2.1,0.3,2-2.5,4.1-2.4c-0.2,0.4-0.6,2.3,0.4,2.5c0.2-0.5,0.8-1.6,1.5-2.6
			c0.4-0.5,0.7-1.1,1.2-1.5c0.5-0.4,1-0.8,1.6-0.9L70,8.2c0.3-0.1,0.6-0.1,0.8-0.2l0.9-0.1c-0.3,0.3-0.8,0.6-1.3,1
			c-0.5,0.4-1,0.9-1.5,1.3c-0.5,0.5-0.9,1-1.3,1.4c-0.4,0.5-0.8,0.8-1.2,1.1c0.8,0.4,0.2,0.6,1.4,0.6c0.1,0.3,0.1,0.4-0.2,0.6
			c-0.3,0.1-0.6,0.2-0.8,0.2l0.7,0.1l0.3,0l0.2,0.1c0.3,0.1,0.6,0.1,0.8,0.2c0-0.5,0.4-0.8,0.8-0.9c0.4-0.1,0.8-0.3,0.9-0.7
			c-0.8,0.2-1.6,0.4-2.3,0.7c0-0.5,0.3-1.3,1-1.8c0.3-0.3,0.7-0.5,1.1-0.5c0.4-0.1,0.9-0.1,1.3,0.2c0.1,0.3-0.1,0.7-0.4,1.1
			c-0.3,0.4-0.6,0.8-0.6,1c0.1-0.1,0.5-0.2,0.9-0.2c0.3,0.1,0.7,0.2,0.7,0.3c-0.3,0.1-0.5,0.2-0.8,0.3c0.3,0.4,0.7,0.1,1.1,0.1
			c0.2,0,0.4,0,0.6,0.1c0.2,0.1,0.3,0.3,0.3,0.7c0.1,0.1,0.1,0.6,0.1,0.9c0,0.3,0,0.5,0.2,0.3c0.5-1.2,2.8-4.2,3.8-4.5
			c0,0,0.1,0.2,0.2,0.5c0.1,0.3,0.2,0.6,0.3,1c0.2,0.7,0.3,1.6,0.2,2c-0.2,0.6-0.8,0.6-1.4,0.8c-0.6,0.1-1.2,0.2-1.4,0.7
			c0.2-0.2,0.7-0.1,0.9,0c0,0.5-0.8,0.4-0.3,1c1-0.4,0.7,1.5,1-0.1c0.3,0.3,0.4,0.5,0.4,0.8c0,0.3,0,0.5,0.2,1
			c0.3-0.3,0.9-0.2,1.5,0c0.3,0.1,0.6,0.3,0.9,0.5c0.2,0.2,0.5,0.5,0.6,0.7c-0.3,0-0.6,0.3-0.7,0.4c0,1-0.1,1.8-0.2,2.5
			c-0.1,0.8-0.3,1.5-0.3,2.4c-0.3,0.2-0.6,1.1-1,0.7c0.2,0.3,0.6,0.5,0.6,1.1c-0.9,1.1-0.1-1.3-1.3-0.4c0.6,0.1,0.9,1.5,1.3,2.3
			c1-0.3,0.2-1.9-0.2-2.7c1.3,0,2.7,1.4,3.4,3.4c0.3,1.6-0.9,0.7-0.7,1C81.4,34,84,33.5,83,36c-0.9,1-1.7,0-2.3,0.3
			c-0.3-1.3,0.5-2,0.5-2.8l-0.4,1.1c-0.3-0.4-0.5-1.3-0.3-1.7c-0.8,0.8-0.1,5-0.9,7.3c0.3,0.4,0.6,1.1,0.9,0.8L80.5,40
			c0.7-0.7,1,1.4,1.3,0.4c0.5,1,1.2,2,0.9,3.4l-1,0.3c0.3,0,0.6-0.9,0.3-1.3c0.4,0.6-1.3,2.1,0,2.7l0.7-1c0.5,1,1.5,2.2,1.2,3.4
			c1-0.5-0.1-0.3,1-1.1c-1.4,0.7,0.1-3.1-1.4-1.9c1.3-0.9,0.6-1.5,1.7-2.7c-0.3,0-0.6,0.4-0.5-0.6c-0.1,0-0.2-0.2-0.3-0.2
			c0,0,0,0,0-0.1c0,0,0,0,0,0.1c0,0-0.1,0,0,0c-0.1,0.2-0.3,0.4-0.5,0.5c-0.7-0.5-0.7-2.1-1.1-2.7c0.2-0.6,0.4,0.3,0.7-0.1l-0.6-0.8
			c0.7-0.1,1.2-1.6,1.6-0.2l0-1.3c0.4-0.7,0.6-1.8,0.3-2.4c0.2-0.6-0.8-1.5-0.2-1l-0.4-2l0.2,0c0.1-2-1.2-4,0.1-6.3
			c-0.2-0.7-0.4-1.3-0.2-2.5l0.6-0.2c-0.1-0.3,0-1.3,0.1-2.1c0-0.8-0.1-1.5-0.4-1.7c0.4-0.4,0.4-0.9,0.4-1.6c0-0.7-0.3-1.4-0.7-2.1
			c-0.7-1.4-1.8-2.7-2.3-3.6L81.1,12c-0.8-1.1-1.9-2-3.4-2.7l-0.4,0.6c-0.4-0.1-0.7-0.3-1-0.5c-0.4-0.2-0.7-0.6-1.1-0.9
			c-0.4-0.3-0.8-0.6-1.3-0.9c-0.5-0.3-1-0.5-1.5-0.7c0.2-0.2,0.8,0,1.1,0.3c-1-1.3-2.6-1.3-4-1.1c-0.4,0.1-0.7,0.1-1,0.2
			c-0.3,0.1-0.6,0.1-0.9,0.2c-0.5,0.1-1,0-1.5-0.3c-0.5,0.3-0.8,0.2-1.1,0c0,0,0.1,0,0.1,0c0,0-0.1,0-0.2,0
			c-0.2-0.1-0.4-0.3-0.7-0.4c0.2,0.2,0.4,0.3,0.5,0.4c-0.4,0-0.9,0.1-1.5,0.3l-0.2-0.8c0,0-0.1,0-0.1,0c-0.5-0.3-0.4,0.4-0.1,0.9
			c-0.3,0.1-0.5,0.3-0.7,0.5c-0.4-1.2-1.4,0.4-2-0.9c-0.4,0.6-2.7,0.5-3,1.8c0-0.2-0.2-0.3,0.1-0.3c-0.6-0.2-1.2-0.3-1.7,0.1l-0.3-1
			l-1.3,1.3c-0.8-0.6-1.1-0.9-0.3-1.7c-1.9,1.2-1.6,0.4-3.2,1.6l0.1-0.6c-0.6,0-1.5,0.9-1.9,0.3c-1.3-1.2-6.4-0.2-9.8-1.3
			c0.6,1.9-1.6-0.8-1.7,0.6C37,6.7,36.5,6.4,37,6.1c-1.7,0.4-2.6-0.7-3.7,0.5c-0.2-0.4,0.4-0.6,0.2-0.9c-0.1,0.1-0.5,0.4-0.7,0.1
			c-0.2-0.3,0.2-0.4,0.5-0.6c-1.7,0.1-1.9,1.4-2,2.7c-0.9-0.6-1.3-0.5-2,0.3c-0.3-0.4-0.8-0.8,0.3-1c-0.6-0.1-3.7-0.6-3.8,0.4
			c-0.2-0.3-0.9-0.1-1,0c-1.4-0.1-1.5-0.2-2.8-0.1l0.4,0.2c-0.5,1.2-1.2,0.3-2.4,0.5l0-0.1c-1.5-0.2-1.8,0-2,0.2
			c-0.3,0.2-0.5,0.3-2,0.4l0.4,0.6c0.2,0.8-0.4,0.8-1.2,0.8c-0.4,0-0.9,0.1-1.3,0.2c-0.4,0.2-0.8,0.4-1,0.8l0.7,0
			c-0.2,0.5-1,0.4-1.9,0.4c-0.9,0-1.9,0-2.4,0.3c-0.3,0.1,0-0.4,0.2-0.7c-0.6,0.3-0.9,0.6-1,0.8c-0.1,0.2,0,0.3,0.2,0.4
			c0.3,0.2,0.8,0.5,0.4,1.3c-0.6,0-0.9-1.2-1.7,0c-0.4,0.2-0.5,1.3-0.6,2.5c-0.1,1.2-0.1,2.4-0.8,3.2C6.4,19,6.8,18.7,7,19.6
			c0,0.3-0.2,0.7-0.3,1.1c-0.1,0.4-0.3,0.8-0.5,1.3c-0.3,0.8-0.4,1.4,0.3,1.9c-0.1,0.1-0.2,0.2-0.3,0.2c0.3,0.8,0.6,2.7,1.3,3.2
			c-2.6,0.8,1.3,5.1-1.1,5.1L6.4,35l-0.2-0.1c-0.2,1.6,0.4,2.2,1,2.8C7,38,6.8,37.8,6.7,37.7c-0.5,2.4-0.4,2.6,0.8,4.6l-0.8,0.2
			c0.5,0.5-1.2,3.4-0.3,5.8c-0.1,0-0.2-0.1-0.4-0.3c0.9,2.6-2.2,6.3,0.7,7.2L7.4,57c0.2-2.2,1.2,0.3,1.7-0.6c0.2,0.9-0.9,2.3-1,1.2
			l0.1-0.2c-1.5-0.4-0.5,2.8-1.5,2.7c0,2.2-0.2,4.4-0.4,6.5c-0.1,0.5-0.1,1.1-0.2,1.6c0,0.6-0.1,1.3,0,2c0.1,0.7,0.1,1.3,0.3,2
			c0.1,0.3,0.1,0.6,0.2,1L7,74.1c0.3-0.3,0.6-0.6,0.9-0.9c0.2,0.5,0.3,1.1,0.6,1.6c0,0.5-0.5,1-1.1-0.2c-0.2,0.4,0.2,0.9,0.6,1.2
			c0.5,0.3,1,0.4,1.1,0.3c0.2,0.6,0.2,0.9,0.1,1c-0.1,0.1-0.3,0.1-0.6-0.1c-0.5-0.2-1-0.7-0.9-0.4c0.2,0.3,0.4,0.6,0.7,0.9
			c0-0.1,0-0.2,0-0.3c0.4,0.2,0.8,0.3,1.1,0.4c0.3,0.1,0.6,0.4,1.1,0.9c0.5,0.9-0.2,0.9,0.1,1.2c-0.1,0.1,0,0.2,0.4,0.4
			c0.5,0.6,1.2,1,1.8,1.5c-0.1-0.4-0.2-0.9-0.2-1.3c0.3,0.1,0.5,0.2,0.7,0.3c0.2,0.1,0.4,0.2,0.5,0.2c0.3,0.1,0.3,0,0.2-0.7
			c0.1,1.1,1.9,2.2,3.8,2.7c0.2,0.1,0.5,0.1,0.7,0.2c0.2,0,0.5,0.1,0.7,0.1c0.5,0.1,0.9,0.1,1.3,0.1c0.4,0,0.7,0,1,0.1
			c0.2,0,0.4,0.1,0.5,0.1c1.1-0.7,2.2-0.7,3.6-0.6c-0.3-0.2-0.5-1.2,0.6-1.1c-0.4,2.1,2.2,0.9,3.1,2.5c-0.9-1,3.4-0.3,2-1.7
			c1,0.2,0.1,0.8,0.8,1.3c2.4-0.8,5.2,0.5,8.1,0.3c0-0.3-0.4-0.7,0.2-1.1l1.5,1.4c0.6-0.1,0.5-1.6,1.6-0.6c-0.1-0.2-0.4-0.6,0-0.7
			c5.7,1.4,11.7-1.1,17.4,1.4c-0.8-0.5-0.3-0.6,0.3-0.6c-0.4-0.1,0-0.7-0.1-1.1l2.4,1.1c0.4-1.1,2.6-0.1,2.9-1.1L66,82.9
			c1-1.2-1.4-2.6-1.3-4.2c-1.1,1.3-3-2-4.9-0.1c-0.4-0.3,0.4-0.5,0.1-0.8c-0.5,0.7-1,0.8-2.1,0.5l0.1-0.2c-3,0.2-4.3-0.5-7.6-0.9
			l0.2,0.8c-0.7-0.1-0.9-0.3-1.2-0.5c-0.8,1.1,2,0.1,1.3,1.3c-1-1.5-5.1,0-5.7-1.8c-1.1,0,0.3,0.9-0.8,0.9l-0.3-0.5l-0.3,0.6
			c-0.7-0.1-1.1-0.7-1.1-1.1c0.2,0,0.5-0.1,0.7-0.1c-0.9-0.6-2.7,0.2-3,0l1.1,0.3c-3,0.4-6.7-0.2-9.7,0.8l0.2,0.4
			c-2.2,0.7-1.8-0.4-4.2-0.1l0.1-0.1c-0.5,0.4-1.1,0.5-1.8,0.5c0.6-0.4-1.2-0.8-0.4-1.3c-2.4,0.7-1.2,0.6-2.8,1.9l-0.4-0.6
			c-0.6,0.5-0.6,0.8-1.7,0.9c0.5-0.2,0.3-0.5,0.2-0.7c-0.1-0.3-0.2-0.5,0.2-0.8c-0.5-0.3-0.9-0.5-1.2-0.5c-0.4-0.1-0.7,0-1,0
			c-0.3,0-0.6,0-0.8-0.1c-0.2-0.2-0.3-0.4-0.3-0.9c-0.8,0.5-0.5,0.9-0.1,1.2c0.4,0.3,1,0.4,0.7,0.4c0.1,0.3-0.2,0.5-0.6,0.6
			c-0.4,0.1-1-0.1-1.3-0.3c-0.3-0.2-0.3-0.8-0.4-1.5c-0.1-0.7-0.1-1.4-0.7-1.9c0.1,0.1,0.2,0,0.3,0.1c0-0.2-0.1-0.3-0.2-0.4
			c-0.1-0.1-0.3-0.2-0.4-0.2c-0.1-0.1-0.3-0.2-0.4-0.3c-0.1-0.1-0.1-0.3-0.1-0.6c-0.5,0.1-0.7-0.1-0.8-0.2c-0.1-0.2-0.3-0.3-0.8,0
			l0.5,0.6l0.6,0.5c-0.4-0.2-1-0.3-1.6-0.6c-0.3-0.1-0.5-0.3-0.7-0.6c-0.2-0.3-0.3-0.6-0.3-1.1c0.3,0,0.7,0.3,1.1,0.5
			c0.1-0.5-0.6-0.7-0.4-1.2c0.6-0.1,0.8,0.3,1.1,0.7c0.2,0.5,0.6,1,1.2,1.1c0.1-0.3-0.3-0.5-0.5-0.7c-0.2-0.2-0.3-0.4,0.4-0.5
			c-0.9,0.1-1-0.3-1.1-0.7c-0.1-0.4,0-0.9-0.8-1.3l0.7-0.1c-0.1-0.1-0.5-0.4-0.6-0.7c0.4,0.1,0.7,0.3,1,0.4
			c-0.2-0.2-0.3-0.3-0.3-0.5c0-0.2,0.1-0.4,0.2-0.6l0.2-0.3c0-0.1,0.1-0.3,0.1-0.4c0.1-0.3,0.1-0.5,0-0.8c0,0.6,0,0.9-0.1,1.1
			c-0.1,0.2-0.2,0.1-0.4,0.1c-0.3,0-0.7-0.2-0.9,0.2c-0.1-0.2-0.2-0.6-0.2-0.8c0-0.2,0-0.4,0.1-0.6c0.1-0.3,0.4-0.5,0.7-0.8
			c0.6-0.4,1.2-0.9,1-2.5c0.1,0.4-0.5,1.6-0.8,0.9c0.2-0.6,0.4-1.4,0.8-1.8c-0.2-2.1-0.8,0.3-1.2-0.6c0.9-0.7-0.4-1-0.7-1.9l0.8,0
			c0.5-2.4-1.6-0.6-1-2.8l1.1,0.9l-0.3-1.1l0.9,0.2c-0.6-1.2-0.5-1.6-0.2-2.8c-0.5,0.3-1.4-0.2-1.4-1.2c0.5-0.7,0.7,0.4,0.6-1.1
			c0.5,0.3,1.1,0.7,0.4,1.4c0.3,0.1,0.5,0.3,0.7,0.4c0.5-0.8,0.1-1.9,0.1-2.5c0,0.2-0.1,0.5-0.2,0.6l-1.1-2.2
			c0.3-0.3,0.5-0.1,0.7,0.2c-0.1-0.4-0.4-0.7-0.5-1.4c0.6,0.2,1.3,0.1,1.6,1l-0.7-2.1c0.3-0.1,0.7-1.1,1-0.8
			c0.4-1.1-1.2-2.8-0.7-4.3c-0.1-0.1-0.2-0.2-0.3-0.6c0.1-1.4,0.9-2.7,0.1-4.4l1.1-1c-0.3-1.3-1.4,1.3-1.8-0.9
			c-0.4-1.6,1-0.6,1.3-1.1c-0.6-0.8-1.7-2.1-0.8-3.5C13.4,32.2,13.2,32.6,13.3,33z M13.6,18.4c0,0.3,0.4,0.9-0.1,0.8
			C12.8,18.7,13.2,18.6,13.6,18.4z M32.4,11.4c-0.2,0.3-0.6,0.1-1-0.2C31.7,11.2,32,11.2,32.4,11.4z M84,36C84,36,84,36,84,36
			C84.3,35.3,84.2,35.6,84,36z M83.7,37.5c0.1,0.1,0.2,0.1,0.3,0.1c-0.2-0.1-0.2-0.4-0.2-0.8C83.7,36.9,83.5,37.1,83.7,37.5z
			 M11.1,79.6L11,79.3C11.7,79.6,11.4,79.6,11.1,79.6z"/>
		<path class="st0" d="M29.6,12.4c-0.1-0.1-0.1-0.3-0.1-0.4C29.3,12.1,29.3,12.3,29.6,12.4z"/>
		<path class="st0" d="M13.7,43.1C13.7,43.2,13.7,43.2,13.7,43.1c0,0.1,0.1,0.1,0.1,0.1L13.7,43.1z"/>
		<path class="st0" d="M75.6,17c0-0.2,0-0.4,0.1-0.6C75.5,16.5,75.5,16.7,75.6,17z"/>
		<path class="st0" d="M85,45.2l-0.2-0.9c0,0.5-0.1,0.6-0.3,0.8C84.7,45.1,85,44.9,85,45.2z"/>
		<path class="st0" d="M80.2,53.4c0.1,0.1,0,0.3,0.1,0.4l0.4,0C80.7,53.2,80.4,52.8,80.2,53.4z"/>
		<path class="st0" d="M82.4,46.1c-0.6,0.1-0.4,0.7-0.3,1.3c0,0,0-0.1,0-0.1C83,47.5,82.7,46.8,82.4,46.1z"/>
		<path class="st0" d="M82.2,47.6c0,0.2,0,0.4,0,0.6C82.5,48.3,82.3,47.9,82.2,47.6z"/>
		<path class="st0" d="M84.1,39.4c-0.2,0.3,0.8,0.2,0.6,0.4C85.5,40.1,83.7,37.7,84.1,39.4z"/>
		<polygon class="st0" points="80.3,46.6 81.1,46.4 80.5,46 		"/>
		<path class="st0" d="M80.9,41.5l-0.2,1c0.1,0,0.2,0.1,0.3,0.3C81,42.1,81.1,41.4,80.9,41.5z"/>
		<path class="st0" d="M81,42.8c0,0.3,0,0.7,0.1,0.8C81.1,43.5,81.1,43.1,81,42.8z"/>
		<polygon class="st0" points="80.1,45.2 80.2,44.9 80.3,44.2 		"/>
		<path class="st0" d="M81.1,30.2l-0.2-1.1c-0.3-0.1-0.4,0.2-0.3,0.6C80.7,30,80.8,30.4,81.1,30.2z"/>
		<path class="st0" d="M78.9,33.7c0.2-0.3,0.3-0.3,0.6-0.5l-1,0L78.9,33.7z"/>
		<path class="st0" d="M78.6,30.3c-0.3-0.1-0.8-1.7-0.7-0.2C78.2,30.2,78.4,31.4,78.6,30.3z"/>
		<path class="st0" d="M76.8,14.2l0.2,0.2l1.2-1.1C77.8,13.6,77.3,13.9,76.8,14.2z"/>
		<path class="st0" d="M63.2,14c1.4,0.4,0.3-1,1.5-0.5c0.3-0.4-1-0.4-0.7-0.7C63.2,13.2,62.8,13,63.2,14z"/>
		<path class="st0" d="M64,12.8c0.1-0.1,0.3-0.1,0.4-0.2C64.2,12.7,64.1,12.7,64,12.8z"/>
		<polygon class="st0" points="65.5,84.7 66.4,85 65.8,84.5 		"/>
		<path class="st0" d="M67.2,83.5l0.2,1l0.5-0.9C67.7,83.6,67.4,83.7,67.2,83.5z"/>
		<path class="st0" d="M16.2,18.1L16,17.9c-0.3-0.1-0.4,0-0.5,0.2C15.7,18.1,16,18.1,16.2,18.1z"/>
		<polygon class="st0" points="14.1,26.1 14.1,25.9 13.2,26.3 		"/>
		<path class="st0" d="M15.3,36.1c0-0.4-0.2-0.9-0.1-1.3C15.3,35.6,14.1,36.2,15.3,36.1z"/>
	</g>
</g>
</svg>
