<?xml version="1.0" encoding="utf-8"?>
<!-- Generator: Adobe Illustrator 27.5.0, SVG Export Plug-In . SVG Version: 6.00 Build 0)  -->
<svg version="1.1" id="Capa_1" xmlns="http://www.w3.org/2000/svg" xmlns:xlink="http://www.w3.org/1999/xlink" x="0px" y="0px"
	 viewBox="0 0 251 114" style="enable-background:new 0 0 251 114;" xml:space="preserve">
<style type="text/css">
	.st0{display:none;}
	.st1{display:inline;}
	.st2{fill:#009FE3;}
	.st3{fill:#FFED00;}
	.st4{fill:#E30613;}
	.st5{fill:#312783;}
	.st6{fill:#E6007E;}
	.st7{fill:none;stroke:#312783;stroke-width:0.75;stroke-miterlimit:10;}
	.st8{fill:none;stroke:#E30613;stroke-width:0.75;stroke-miterlimit:10;}
	.st9{fill:none;stroke:#009FE3;stroke-width:0.75;stroke-miterlimit:10;}
	.st10{fill:none;stroke:#009640;stroke-width:0.75;stroke-miterlimit:10;}
	.st11{fill:#FFEC00;}
	.st12{fill:#E20613;}
	.st13{fill:#312782;}
	.st14{fill:#E5007E;}
	.st15{fill:none;stroke:#312782;stroke-width:0.75;stroke-miterlimit:10;}
	.st16{fill:none;stroke:#E20613;stroke-width:0.75;stroke-miterlimit:10;}
	.st17{fill:none;stroke:#009EE2;stroke-width:0.75;stroke-miterlimit:10;}
	.st18{fill:none;stroke:#009540;stroke-width:0.75;stroke-miterlimit:10;}
	.st19{enable-background:new    ;}
	.st20{fill:#009EE2;}
</style>
<g id="Capa_1_00000018217214116979808020000017740878733905691815_" class="st0">
	<g id="Capa_1_00000145048501041920359310000010012788280804960683_" class="st1">
		<g>
			<path class="st2" d="M149.2,67.9c-2.6,0.9-4.2,1.4-4.7,1.5c-2.3,0.9-3.7,1.6-4.1,2.1c0,0.3,0.1,0.5,0.3,0.6
				c0.5,0.3,1.5,0.4,3.1,0.4c0.5,0,1.8-0.2,3.8-0.6c2.7-0.6,5.1-1.2,7.3-1.7c-0.1,0.6-0.4,1-0.8,1.2c-0.4,0.2-1.9,0.7-4.5,1.4
				c-2.6,0.8-4.1,1.2-4.6,1.2c-0.2,0-0.6,0-1.3,0.1s-1.2,0.1-1.4,0.1c-0.8,0-1.7-0.2-2.7-0.6c-1.2-0.4-1.8-1-1.8-1.7
				c0-0.8,0.3-1.4,0.8-1.8c0.1-0.1,0.7-0.3,1.8-0.8c2.3-1.1,4.3-1.7,5.8-2.1c0.6-0.1,1.2-0.4,2.1-0.7c1-0.4,1.7-0.7,2-0.8l1.7-0.3
				c0.5-0.1,1-0.4,1.4-0.8c-0.3-3.4-0.4-7.8-0.4-12.6c0-3.4,0.2-4.3,0.7-4.5c0.6,0.3,0.9,0.3,1,1.8c0-0.2,0,0.9,0,3.3v9.7
				c0,1.1,0.1,2.3,0.3,3.5C153.9,66.3,151.9,67,149.2,67.9z"/>
			<path class="st2" d="M170.2,74.2h-5.1c-1.2,0-2.5-0.2-4-0.5c-1.9-0.5-3-1-3.2-1.8c-0.3-0.8-0.4-1.6-0.4-2.2
				c0-1.4,0.6-2.6,1.9-3.4c1.1-0.6,2.3-1,3.9-1c1.3,0,2.3,0.3,3.1,0.9s1.2,1.3,1.2,2.3c0,0.5-0.9,1.1-2.7,1.8
				c-1.7,0.6-3.4,1.2-4.1,1.1c0,0.1-0.2,0.1-0.4,0.3c0.1,0.2,0.9,0.4,2,0.7c0.9,0.2,1.9,0.2,2.3,0.2h4.6c-0.1,0,0.5,0.1,1.7,0.3
				c0.4,0.2,0.6,0.5,0.8,0.8C171.3,74,170.8,74.2,170.2,74.2z M163.1,67c-0.9,0-1.6,0.2-2.3,0.5c-0.9,0.4-1.4,1-1.4,1.7
				c0,0.3,0.1,0.6,0.3,0.8h0.9c0.3,0,1.2-0.2,2.7-0.7c1.4-0.6,2.2-1.2,2.5-1.4C165.1,67.3,164.3,67,163.1,67z"/>
			<path class="st2" d="M181,72.5c-0.4,0.2-1.3,0.5-2.9,1c-1.6,0.5-2.6,0.7-2.9,0.7c-0.1,0-0.2,0-0.2-0.1c-0.1-0.1-0.1-0.1-0.2-0.1
				c-0.2,0-0.6,0.3-1.2,0.9c-0.4-0.3-0.6-0.6-0.6-0.7c0-1.1,1.6-1.9,4.8-2.6c0.2-0.1,0.6-0.1,1.1-0.2c0.1-0.1,0.4-0.3,0.7-0.6
				c-0.3-0.5-0.8-0.9-1.4-1.1c-0.8-0.3-1.9-0.7-3.5-1.3c-1.7-0.7-2.5-1.4-2.5-2.2c0-1,1-1.6,3.1-1.6c0.8,0,1.8,0.1,3.1,0.3
				c1.5,0.2,2.4,0.5,2.9,0.7l-0.2,0.9c-1.8-0.2-4.4-0.8-6.3-0.1c-0.1,0.1-0.2,0.1-0.4,0.3l4.8,1.6c1.8,0.6,2.6,1.7,2.6,2.6
				C181.8,71.7,181.6,72.2,181,72.5z"/>
			<path class="st2" d="M187.1,74c-0.5,0.3-0.9,0.4-1.2,0.4c-0.1-0.5-0.2-1-0.2-1.7c0-3.6,0.5-5.6,1.4-5.8c0.3,0.1,0.5,0.4,0.5,0.7
				c0-0.1,0-0.2,0-0.2c0,0.4,0,1.7-0.2,3.8C187.2,72.6,187.1,73.5,187.1,74z M188.6,50.5c0,0.4-0.4,0.9-1.2,1.4
				c-0.2-0.1-0.7-0.5-1.4-1.2c0.3-0.7,0.6-1,0.9-1C187.3,49.7,187.9,49.9,188.6,50.5L188.6,50.5z"/>
			<path class="st2" d="M201.1,83.4c-1.1,2.2-2.6,3.9-4.5,5.1c-1.1,0.6-3.2,0.9-6.5,0.9c-0.5,0-1.3-0.1-2.3-0.3
				c-1-0.2-1.8-0.4-2.3-0.6c-0.8-0.3-1.4-0.7-1.9-1.2c-0.3-0.3-0.6-0.8-0.9-1.5c-0.3-0.7-0.4-1.2-0.4-1.7c0-1.3,1.4-2.6,4.2-4
				c1.9-0.9,4.2-1.7,6.8-2.5c1.8-0.5,4.3-0.9,7.2-1.2l0.3-0.2c0-0.1,0-0.2,0-0.3c0-0.1-0.1-0.8-0.3-2.2c0-0.4-0.3-1.1-0.7-2.1
				c-0.4-1.2-0.8-1.7-1-1.7c0.1,0-0.4,0.2-1.6,0.6c-1.2,0.4-2.1,0.6-2.7,0.6c-0.8,0-1.4-0.1-2-0.4c-0.7-0.3-1.1-0.9-1.1-1.5
				c0-0.2,0-0.5,0.1-0.9c0.1-0.5,0.1-0.7,0.1-0.8l0.6-0.7c0.4-0.2,1.1-0.5,2-0.8c1-0.4,1.7-0.6,2.1-0.6h4.1l0.2,0.9l-0.6,0.5
				c-0.3,0-0.5,0-0.8,0c-3.3,0-5.5,0.6-6.3,2c0.5,0.6,1.1,0.9,1.9,0.9c0.4,0,1.2-0.4,2.7-1.1c1.4-0.7,2.1-1.1,2-1.1
				c0.5,0,1,0.6,1.4,1.7c1.2,3.2,1.8,5.9,1.8,8.2C202.6,79.5,202.1,81.4,201.1,83.4z M200.7,76.9h-0.6c-0.2,0.1-0.6,0.4-1.2,0.9
				c-0.4,0.1-1.2,0.2-2.3,0.4c-4.2,0.9-7.7,2.2-10.5,3.7c-1.3,0.7-2,1.7-2,2.8c0,1.4,1.5,2.4,4.4,3.1c0.9,0.2,1.9,0.3,2.8,0.3
				c1.7,0,3-0.2,4-0.7c0.3-0.2,0.6-0.5,0.9-0.7c0.2-0.1,0.6-0.3,1-0.7c1.1-0.9,2-2.2,2.8-4c0.7-1.6,1.1-3,1.1-4.3
				C200.9,77.4,200.8,77.1,200.7,76.9z"/>
			<path class="st2" d="M217.1,70c-0.2,1.7-0.4,3.6-0.6,5.7c0,0.2-0.2,0.2-0.5,0.2c-0.4,0-0.7-0.5-0.9-1.4c-0.2-0.7-0.3-1.4-0.3-1.9
				c0-0.3,0.1-1.1,0.4-2.3c0.3-1.2,0.4-1.9,0.4-2.2c0-0.6-0.1-0.9-0.5-0.9s-1.2,0.4-2.5,1c-1.1,0.6-1.9,1.1-2.5,1.4
				c-0.9,0.7-2,1.7-3.3,3.2c-0.2,0.3-0.6,0.7-1.2,1.3c-0.2,0.3-0.7,0.4-1.4,0.4v-1c0,0,0,0,0-0.1c0-0.2,0-0.5,0-0.7
				c0-3.6,0.4-5.6,1.4-5.8c0.2,0.1,0.4,0.3,0.5,0.5c0,0.4,0,1.7-0.2,3.8v0.2c0.3-0.3,0.6-0.6,1.1-0.9c1.4-1.2,2.9-2.4,4.4-3.4
				c2.2-1.4,3.8-2.1,4.8-2.1c0.3,0,0.6,0.1,0.8,0.4c0.3,0.3,0.4,0.6,0.4,0.9C217.4,66.7,217.3,67.9,217.1,70z M206,67.6L206,67.6
				C206.1,67.6,206,67.6,206,67.6z"/>
		</g>
		<g>
			<path class="st3" d="M100.9,50.4c-0.1,2.8-0.2,4.5-0.2,5.3c-0.6,0.1-1.1,0.3-1.6,0.7c-1.4-1.1-2.1-2.8-2.1-5.1
				c0-0.4,0.1-1.3,0.2-2.6c0.1-1.4,0.2-2.2,0.2-2.6c0-1.1-0.2-2-0.6-2.6h-0.9c-0.9,0-4.1,1.7-9.5,5.1l-8.2,5.1
				c-0.8,0-1.9-0.5-3.3-1.6c0-0.2,0-0.4,0-0.6c0-0.3,0.1-1.2,0.2-2.4c0.2-1.3,0.2-2.1,0.2-2.4c0-1.2-0.2-2.1-0.7-2.9h-1
				c-0.9,0-4.9,3.3-12.3,10.1h-0.6c-0.5,0.2-1,0.3-1.4,0.3c-0.3-0.9-0.4-2-0.4-3.2c0-7.1-0.9-22.3,0.9-22.8
				c0.5,0.2,0.6,13.6,0.7,14.1c0,0.7,0.4,1.7,0.1,5.9L60.5,51c0.2-0.2,1.9-1.6,2.2-1.7c0.3-0.2,2.4-2.1,6.4-5.6c3-2.7,5.2-4,6.9-4
				c1.7,0,2.6,2,2.6,6.1c0,0.5-0.1,1-0.1,1.6c-0.1,0.9-0.1,1.5-0.1,1.7c0.7,0.1,1.1,0.2,1.2,0.2c0.7-0.2,3.9-2.1,9.5-5.4
				c0.5-0.4,1.2-1,2.2-1.6c3.5-1.6,5.9-2.3,7.2-2.3c1.8,0,2.6,1.7,2.6,5.2C101.1,45.9,101,47.7,100.9,50.4z"/>
			<path class="st4" d="M60.4,75.3c-0.1,0.5-0.3,13.9-0.7,14.1c-1.8-0.5-0.9-15.7-0.9-22.8c0-1.3,0.1-2.4,0.4-3.2"/>
			<path class="st4" d="M59.2,85.9c-0.3-0.9-0.4-2-0.4-3.2c0-7.1-0.9-22.3,0.9-22.8c0.5,0.2,0.6,13.6,0.7,14.1"/>
			<path class="st5" d="M130.4,55.2c-0.3,0.6-0.7,0.9-1.2,0.9c-0.6,0-1.6-0.9-3.1-2.7c-1.4-1.8-2.6-2.8-3.4-2.8
				c-0.2,0-2.2,0.8-6.2,2.4c-3.9,1.6-6.6,2.4-7.9,2.4c-0.9,0-2-0.5-3.1-1.4c-1.2-0.9-1.7-1.8-1.7-2.6c0-2.1,2.2-4.5,6.8-7.2
				c4.3-2.6,7.5-3.9,9.8-3.9c0.9,0,1.8,0.5,2.5,1.6V43c-0.4,0.6-0.8,0.8-1.3,0.8c-0.2,0-0.5-0.1-1-0.3s-0.8-0.3-1-0.3
				c-0.7,0-2.4,0.7-5.1,2.3c-2.5,1.4-4.2,2.5-5.1,3.2s-1.4,1.6-1.7,2.5c0.7,0.6,1.4,1,2.4,1c0.8,0,3-0.8,6.7-2.4
				c3.7-1.6,6.2-2.4,7.4-2.4c1.2,0,2.1,0.3,2.6,0.9c0.1,0.2,0.6,1,1.4,2.5c0.6,1.2,1.4,2.2,2.2,3.1L130.4,55.2L130.4,55.2z"/>
			<path class="st6" d="M149.4,53.1c-0.7,0.3-2.6,1-5.6,2c-3.1,0.9-5,1.4-5.6,1.4c-0.2,0-0.3-0.1-0.5-0.2c-0.1-0.1-0.3-0.2-0.5-0.2
				c-0.4,0-1.2,0.6-2.4,1.8c-0.8-0.6-1.2-1.1-1.2-1.4c0-2.1,3.1-3.7,9.4-5c0.5-0.1,1.2-0.2,2.2-0.5c0.3-0.2,0.7-0.6,1.4-1.2
				c-0.6-1-1.5-1.7-2.8-2.2c-1.5-0.6-3.7-1.4-6.7-2.5c-3.3-1.3-4.9-2.8-4.9-4.3c0-2,2-3,6.1-3c1.6,0,3.6,0.2,6,0.5
				c2.9,0.4,4.7,0.9,5.6,1.4l-0.5,1.7c-3.5-0.3-8.5-1.6-12.2-0.3c-0.1,0.1-0.3,0.3-0.7,0.6l9.3,3.2c3.5,1.2,5.1,3.2,5.1,5.1
				C150.9,51.6,150.4,52.6,149.4,53.1z"/>
		</g>
		<line class="st7" x1="55.5" y1="58.5" x2="55.5" y2="27.6"/>
		<line class="st8" x1="55.1" y1="58.6" x2="23.6" y2="58.6"/>
		<line class="st9" x1="217.4" y1="58.6" x2="55.9" y2="58.6"/>
		<line class="st10" x1="55.5" y1="89.4" x2="55.5" y2="58.5"/>
	</g>
</g>
<g id="Capa_2_00000062176435574558332130000006323914720245459859_">
	<g>
		<path class="st11" d="M100.8,50.9c-0.1,2.8-0.2,4.5-0.2,5.3c-0.6,0.1-1.1,0.3-1.6,0.7c-1.4-1.1-2.1-2.8-2.1-5.1
			c0-0.4,0.1-1.3,0.2-2.6c0.1-1.4,0.2-2.2,0.2-2.6c0-1.1-0.2-2-0.6-2.6h-0.9c-0.9,0-4.1,1.7-9.5,5.1l-8.2,5.1
			c-0.8,0-1.9-0.5-3.3-1.6c0-0.2,0-0.4,0-0.6c0-0.3,0.1-1.2,0.2-2.4c0.2-1.3,0.2-2.1,0.2-2.4c0-1.2-0.2-2.1-0.7-2.9h-1
			c-0.9,0-4.9,3.3-12.3,10.1h-0.6c-0.5,0.2-1,0.3-1.4,0.3c-0.3-0.9-0.4-2-0.4-3.2c0-7.1-0.9-22.3,0.9-22.8
			c0.5,0.2,0.6,13.6,0.7,14.1c0,0.7,0.4,1.7,0.1,5.9l-0.1,2.8c0.2-0.2,1.9-1.6,2.2-1.7c0.3-0.2,2.4-2.1,6.4-5.6c3-2.7,5.2-4,6.9-4
			c1.7,0,2.6,2,2.6,6.1c0,0.5-0.1,1-0.1,1.6c-0.1,0.9-0.1,1.5-0.1,1.7c0.7,0.1,1.1,0.2,1.2,0.2c0.7-0.2,3.9-2.1,9.5-5.4
			c0.5-0.4,1.2-1,2.2-1.6c3.5-1.6,5.9-2.3,7.2-2.3c1.8,0,2.6,1.7,2.6,5.2C101,46.5,101,48.2,100.8,50.9z"/>
		<path class="st12" d="M60.4,75.9c-0.1,0.5-0.3,13.9-0.7,14.1c-1.8-0.5-0.9-15.7-0.9-22.8c0-1.3,0.1-2.4,0.4-3.2"/>
		<path class="st12" d="M59.1,86.5c-0.3-0.9-0.4-2-0.4-3.2c0-7.1-0.9-22.3,0.9-22.8c0.5,0.2,0.6,13.6,0.7,14.1"/>
		<path class="st13" d="M130.3,55.8c-0.3,0.6-0.7,0.9-1.2,0.9c-0.6,0-1.6-0.9-3.1-2.7c-1.4-1.8-2.6-2.8-3.4-2.8
			c-0.2,0-2.2,0.8-6.2,2.4c-3.9,1.6-6.6,2.4-7.9,2.4c-0.9,0-2-0.5-3.1-1.4c-1.2-0.9-1.7-1.8-1.7-2.6c0-2.1,2.2-4.5,6.8-7.2
			c4.3-2.6,7.5-3.9,9.8-3.9c0.9,0,1.8,0.5,2.5,1.6v1.2c-0.4,0.6-0.8,0.8-1.3,0.8c-0.2,0-0.5-0.1-1-0.3s-0.8-0.3-1-0.3
			c-0.7,0-2.4,0.7-5.1,2.3c-2.5,1.4-4.2,2.5-5.1,3.2s-1.4,1.6-1.7,2.5c0.7,0.6,1.4,1,2.4,1c0.8,0,3-0.8,6.7-2.4
			c3.7-1.6,6.2-2.4,7.4-2.4c1.2,0,2.1,0.3,2.6,0.9c0.1,0.2,0.6,1,1.4,2.5c0.6,1.2,1.4,2.2,2.2,3.1L130.3,55.8L130.3,55.8z"/>
		<path class="st14" d="M149.3,53.7c-0.7,0.3-2.6,1-5.6,2c-3.1,0.9-5,1.4-5.6,1.4c-0.2,0-0.3-0.1-0.5-0.2c-0.1-0.1-0.3-0.2-0.5-0.2
			c-0.4,0-1.2,0.6-2.4,1.8c-0.8-0.6-1.2-1.1-1.2-1.4c0-2.1,3.1-3.7,9.4-5c0.5-0.1,1.2-0.2,2.2-0.5c0.3-0.2,0.7-0.6,1.4-1.2
			c-0.6-1-1.5-1.7-2.8-2.2c-1.5-0.6-3.7-1.4-6.7-2.5c-3.3-1.3-4.9-2.8-4.9-4.3c0-2,2-3,6.1-3c1.6,0,3.6,0.2,6,0.5
			c2.9,0.4,4.7,0.9,5.6,1.4l-0.5,1.7c-3.5-0.3-8.5-1.6-12.2-0.3c-0.1,0.1-0.3,0.3-0.7,0.6l9.3,3.2c3.5,1.2,5.1,3.2,5.1,5.1
			C150.9,52.2,150.4,53.2,149.3,53.7z"/>
	</g>
	<line class="st15" x1="55.5" y1="59.1" x2="55.5" y2="28.1"/>
	<line class="st16" x1="55.1" y1="59.1" x2="13.7" y2="59.1"/>
	<line class="st17" x1="224.4" y1="59.1" x2="55.8" y2="59.1"/>
	<line class="st18" x1="55.5" y1="90" x2="55.5" y2="59.1"/>
	<g class="st19">
		<path class="st20" d="M147,70.5c-0.3,0.2-1.3,0.5-2.7,1c-1.5,0.4-2.4,0.7-2.7,0.7c-0.1,0-0.2,0-0.2-0.1c-0.1-0.1-0.1-0.1-0.2-0.1
			c-0.2,0-0.6,0.3-1.1,0.9c-0.4-0.3-0.6-0.5-0.6-0.7c0-1,1.5-1.8,4.6-2.4c0.2-0.1,0.6-0.1,1.1-0.2c0.1-0.1,0.4-0.3,0.7-0.6
			c-0.3-0.5-0.7-0.8-1.4-1.1c-0.7-0.3-1.8-0.7-3.3-1.2c-1.6-0.6-2.4-1.3-2.4-2.1c0-1,1-1.5,3-1.5c0.8,0,1.7,0.1,2.9,0.3
			c1.4,0.2,2.3,0.4,2.7,0.7l-0.2,0.8c-1.7-0.2-4.1-0.8-5.9-0.1c-0.1,0.1-0.2,0.1-0.3,0.3l4.5,1.5c1.7,0.6,2.5,1.6,2.5,2.5
			C147.7,69.8,147.5,70.3,147,70.5z"/>
		<path class="st20" d="M161.9,72.2h-4.8c-1.1,0-2.4-0.2-3.8-0.5c-1.8-0.4-2.8-1-3.1-1.7c-0.3-0.8-0.4-1.5-0.4-2.1
			c0-1.4,0.6-2.4,1.8-3.2c1-0.6,2.2-1,3.7-1c1.2,0,2.2,0.3,2.9,0.8s1.1,1.3,1.1,2.2c0,0.5-0.9,1.1-2.6,1.7c-1.6,0.6-3.2,1.1-3.9,1.1
			c0,0.1-0.2,0.1-0.4,0.3c0.1,0.2,0.9,0.4,1.9,0.7c0.9,0.2,1.8,0.2,2.2,0.2h4.3c-0.1,0,0.5,0.1,1.6,0.3c0.4,0.2,0.6,0.4,0.8,0.7
			C162.9,72,162.4,72.2,161.9,72.2z M155.1,65.3c-0.8,0-1.5,0.2-2.2,0.5c-0.9,0.4-1.3,1-1.3,1.6c0,0.3,0.1,0.6,0.3,0.7h0.9
			c0.3,0,1.1-0.2,2.5-0.7s2.1-1.2,2.3-1.4C157.1,65.6,156.3,65.3,155.1,65.3z"/>
		<path class="st20" d="M175.7,65.2l-0.4,0.4c-1-0.3-1.8-0.5-2.4-0.4c-0.6,0-1.1,0.1-1.5,0.1h-1.1c-0.1,0-0.3,0.1-0.5,0.1
			c-0.1,0.1-0.3,0.1-0.4,0.2c-0.4,0-1,0.1-1.7,0.3c-1.2,0.5-1.5,1.5-1.8,2.8c-0.1,0.7-0.2,1.3-0.1,1.8c0.1,1,0.1,1.6,0.1,1.8
			c-0.2,0.1-0.9,0.1-1.4,0.2c-0.3-0.5-0.4-0.9-0.4-1s0-0.4,0.1-0.8s0.1-0.6,0.1-0.8c0-0.6,0.2-1.5,0.5-2.5c0.1-0.4,0.3-0.9,0.5-1.5
			c0.3-0.5,0.6-0.8,1-1.1c0.9-0.6,2.6-1,5.2-1c2.5,0,4,0.3,4.4,1v0.4H175.7z"/>
		<path class="st20" d="M192,63.2c-0.7,0.3-1.5,0.7-2.5,1.3c-0.1,0.1-0.7,0.7-1.9,1.8c-4.1,4.1-6.6,6.2-7.5,6.2
			c-0.2,0-0.6-0.5-1.2-1.4c-0.5-0.8-0.8-1.4-1-1.8c-0.2-0.5-0.4-1.2-0.8-2.2c-0.3-0.8-0.7-1.5-1.2-2V64c0.6-0.1,0.8-0.2,0.7-0.2
			c0.3,0,1,1.1,2.1,3.2s1.8,3.2,2.2,3.2s1.3-0.8,3.1-2.5c1.9-1.9,3.1-2.9,3.3-3.1c1.2-0.8,2.4-1.6,3.6-2.4h0.9l0.2,0.2L192,63.2
			L192,63.2z"/>
		<path class="st20" d="M193.2,72c-0.4,0.3-0.8,0.4-1.2,0.4c-0.1-0.4-0.2-1-0.2-1.6c0-3.4,0.4-5.3,1.3-5.5c0.3,0.1,0.5,0.4,0.5,0.7
			c0-0.1,0-0.2,0-0.2c0,0.4,0,1.6-0.2,3.6C193.3,70.6,193.2,71.5,193.2,72z M194.7,55.1c0,0.4-0.4,0.8-1.1,1.3
			c-0.2-0.1-0.7-0.4-1.3-1.1c0.3-0.6,0.6-1,0.9-1C193.4,54.3,194,54.5,194.7,55.1L194.7,55.1z"/>
		<path class="st20" d="M209.3,70.4c-0.5,0.3-1.1,0.5-1.7,0.7c-0.9,0.2-2.2,0.4-3.9,0.7c-1.1,0.2-1.8,0.3-2,0.3
			c-1.1,0-2.3-0.2-3.4-0.7c-1.5-0.6-2.2-1.3-2.2-2.3c0-1.1,0.8-2,2.4-2.9c2.3-1.2,3.7-1.8,4.3-1.8l1.7,0.2c-0.1,0-0.2,0.1-0.3,0.3
			c0,0.3-0.1,0.5-0.1,0.5c-0.9,0.3-2,0.8-3.5,1.5c-1.8,0.9-2.7,1.6-2.7,2.1c0,0.9,1.1,1.4,3.3,1.7c0.5,0.1,0.8,0.1,0.8,0.1l6.9-1
			l0.2,0.2v0.4H209.3z"/>
		<path class="st20" d="M223.1,72.2h-4.8c-1.1,0-2.4-0.2-3.8-0.5c-1.8-0.4-2.8-1-3.1-1.7c-0.3-0.8-0.4-1.5-0.4-2.1
			c0-1.4,0.6-2.4,1.8-3.2c1-0.6,2.2-1,3.7-1c1.2,0,2.2,0.3,2.9,0.8s1.1,1.3,1.1,2.2c0,0.5-0.9,1.1-2.6,1.7c-1.6,0.6-3.2,1.1-3.9,1.1
			c0,0.1-0.2,0.1-0.4,0.3c0.1,0.2,0.9,0.4,1.9,0.7c0.9,0.2,1.8,0.2,2.2,0.2h4.3c-0.1,0,0.5,0.1,1.6,0.3c0.4,0.2,0.6,0.4,0.8,0.7
			C224.1,72,223.6,72.2,223.1,72.2z M216.3,65.3c-0.8,0-1.5,0.2-2.2,0.5c-0.9,0.4-1.3,1-1.3,1.6c0,0.3,0.1,0.6,0.3,0.7h0.9
			c0.3,0,1.1-0.2,2.5-0.7s2.1-1.2,2.3-1.4C218.2,65.6,217.4,65.3,216.3,65.3z"/>
	</g>
</g>
<rect x="-56" y="-163" style="fill:none;" width="214" height="75"/>
<text transform="matrix(1 0 0 1 -56 -152.104)"><tspan x="0" y="0" class="st20" style="font-family:'Daniel-Regular'; font-size:12px;">Lorem ipsum dolor sit amet, consec</tspan><tspan x="204.1" y="0" class="st20" style="font-family:'Daniel-Regular'; font-size:12px;">-</tspan><tspan x="0" y="14.4" class="st20" style="font-family:'Daniel-Regular'; font-size:12px;">tetuer adipiscing elit, sed diam </tspan><tspan x="0" y="28.8" class="st20" style="font-family:'Daniel-Regular'; font-size:12px;">nonummy nibh euismod tincidunt ut </tspan><tspan x="0" y="43.2" class="st20" style="font-family:'Daniel-Regular'; font-size:12px;">laoreet dolore magna aliquam erat </tspan><tspan x="0" y="57.6" class="st20" style="font-family:'Daniel-Regular'; font-size:12px;">volutpat. Ut wisi enim ad minim </tspan></text>
</svg>
