<?xml version="1.0" encoding="utf-8"?>
<!-- Generator: Adobe Illustrator 27.5.0, SVG Export Plug-In . SVG Version: 6.00 Build 0)  -->
<svg version="1.1" xmlns="http://www.w3.org/2000/svg" xmlns:xlink="http://www.w3.org/1999/xlink" x="0px" y="0px"
	 viewBox="0 0 90 90" style="enable-background:new 0 0 90 90;" xml:space="preserve">
<style type="text/css">
	.st0{display:none;}
	.st1{display:inline;}
	.st2{fill:#FEEB15;}
</style>
<g id="instagram" class="st0">
	<g class="st1">
		<path class="st2" d="M56.5,37.5c0,1.1-0.9,2-2,2c-1.1,0-2-0.9-2-2c0-1.1,0.9-2,2-2C55.7,35.5,56.5,36.4,56.5,37.5z M54.1,46.4
			c0,4.6-3.7,8.3-8.3,8.3c-4.6,0-8.3-3.7-8.3-8.3c0-4.6,3.7-8.3,8.3-8.3C50.3,38.1,54.1,41.8,54.1,46.4z M51.1,46.4
			c0-2.9-2.4-5.3-5.3-5.3c-2.9,0-5.3,2.4-5.3,5.3c0,2.9,2.4,5.3,5.3,5.3C48.7,51.7,51.1,49.3,51.1,46.4z M62.6,39.7
			c0-5.6-4.6-10.2-10.2-10.2H38.5c-5.6,0-10.2,4.6-10.2,10.2v13.9c0,5.6,4.6,10.2,10.2,10.2h13.9c5.6,0,10.2-4.6,10.2-10.2V39.7z
			 M59.3,53.4c0,3.9-3.1,7-7,7H38.7c-3.9,0-7-3.1-7-7V39.8c0-3.9,3.1-7,7-7h13.6c3.9,0,7,3.1,7,7V53.4z"/>
		<g>
			<path class="st2" d="M68.3,84.6c-0.5,0-0.3,0.6-0.4,0.7C68.8,85.2,68.3,84.4,68.3,84.6z"/>
			<path class="st2" d="M75.5,81l0,0.3c0.2-0.4,0.4-0.8,0.6-1.2C76,80.4,75.7,80.7,75.5,81z"/>
			<path class="st2" d="M80.5,76c-0.3,0-0.6,0.1-0.7,0.3c-0.2,0.2-0.4,0.5-0.5,0.8c-0.1,0.3-0.3,0.7-0.5,1c-0.2,0.3-0.4,0.6-0.7,0.7
				l-0.3-0.1c0.1,0.3,0.1,0.7,0.2,1.1c0.3-0.3,0.5-0.6,0.8-1c0.2-0.4,0.5-0.7,0.7-1.1C79.7,77.1,80.1,76.4,80.5,76z"/>
			<path class="st2" d="M84.4,73.3c-0.2,0.1-0.3-0.2-0.3-0.2c0,0,0.1,0.2-0.2,1.1c0.1-0.1,0.1-0.1,0.2-0.1
				C84.2,73.9,84.3,73.7,84.4,73.3z"/>
			<path class="st2" d="M84.1,74.1C83.9,74.9,84.7,73.6,84.1,74.1L84.1,74.1z"/>
			<path class="st2" d="M84.8,70.1c0.1,0.4,0.2,0.8,0.2,1.2c0.3-0.2,0.5-1.2,0.6-0.8C85.5,69.2,85.2,69.5,84.8,70.1z"/>
			<path class="st2" d="M84,69l0.1,0.6C84.3,69.5,84.3,69.3,84,69z"/>
			<path class="st2" d="M84.4,70.8c-0.1-0.4-0.1-0.8-0.2-1.2c-0.2,0.1-0.6,0.1,0.1,0.6C83.9,70,84.2,70.2,84.4,70.8z"/>
			<path class="st2" d="M84.1,71.4c-0.4,0.6-0.7,1.3-0.8,0.1c-0.2,1-0.1,1.5,0.2,1.5C83.6,73,84,72.5,84.1,71.4z"/>
			<path class="st2" d="M79.7,75.1l-0.6,0.4c0,0.2,0,0.5,0,0.7C79.1,75.9,80,75.3,79.7,75.1z"/>
			<path class="st2" d="M85.5,64.5c-0.2-0.1-0.6,0.3-1,0.3l0.3,0.6C84.9,65.1,85.1,64.5,85.5,64.5z"/>
			<path class="st2" d="M84.5,64.8l-0.4-0.9C84,64.7,84.2,64.9,84.5,64.8z"/>
			<path class="st2" d="M82.8,68.8c0.3,0.6,0.5,1.3,0.7,1.9c-0.1-0.8-0.4-1.6-0.7-2.3L82.8,68.8z"/>
			<polygon class="st2" points="85.5,61 86,61.5 85.2,60.5 			"/>
			<path class="st2" d="M85.4,58.6c0.5,0.4,0.8-0.5,1.1-0.1c-0.1-0.6-0.5-1.2-0.8-1.7C85.8,57.4,85.8,57.9,85.4,58.6z"/>
			<path class="st2" d="M85.1,56c0.1,0.3,0.3,0.5,0.5,0.8C85.5,56.6,85.4,56.3,85.1,56z"/>
			<path class="st2" d="M84.2,62.3c0.1-0.1,0.5-0.2,0.7-0.7L84.2,62C84.2,62.1,84.2,62.2,84.2,62.3z"/>
			<path class="st2" d="M84.2,62L84.2,62c0-0.4,0.1-0.7,0.1-0.8C84.2,61.3,84.2,61.5,84.2,62z"/>
			<path class="st2" d="M84.2,62.4C84.2,62.4,84.2,62.4,84.2,62.4C84.1,62.4,84.1,62.4,84.2,62.4z"/>
			<path class="st2" d="M83.4,66.3c-0.4-0.5-0.8-1.7-1.4-0.6C82.5,66.1,82.8,65.5,83.4,66.3z"/>
			<path class="st2" d="M83.4,62.9l-0.2,1c0.2,0,0.4-0.2,0.6,0.1L83.4,62.9z"/>
			<polygon class="st2" points="83.1,62.4 83.4,62.9 83.4,62.5 			"/>
			<path class="st2" d="M84.5,57.7c-0.3-0.4-0.3-0.9-0.4-1.4c-0.1,0.6-0.2,1.1-0.2,1.7C84.1,58.1,84.5,58.3,84.5,57.7z"/>
			<path class="st2" d="M84.3,59.8C84.3,59.7,84.2,59.7,84.3,59.8C84.2,59.7,84.2,59.8,84.3,59.8z"/>
			<path class="st2" d="M84.1,51.2L84,51.3c0,0,0.1,0,0.1,0L84.1,51.2z"/>
			<path class="st2" d="M83.8,58.1c-0.1,0.4,0,0.7,0.2,0.9c-0.1-0.3-0.1-0.6-0.1-1C83.8,57.9,83.7,57.9,83.8,58.1z"/>
			<path class="st2" d="M84.8,54.6c-0.1,0.2-0.3,0.5-0.4,0.7C84.6,55.1,85,54.7,84.8,54.6z"/>
			<path class="st2" d="M84.4,59.5C84.4,59.6,84.4,59.6,84.4,59.5C84.6,59.5,84.5,59.5,84.4,59.5z"/>
			<path class="st2" d="M84.4,59.5c-0.1-0.2-0.3-0.4-0.4-0.6c0.1,0.3,0.1,0.5,0.2,0.7C84.3,59.6,84.4,59.6,84.4,59.5z"/>
			<path class="st2" d="M79.7,49.6c0.6,0.1,1.2,1.2,0.5,2.1c0.5,0.9,2.5,0.3,3.7-0.5c-0.3,0-0.5,0-0.9-1c-0.3,0.3-0.8,2.1-1.4,1.3
				c-0.3-1.3,0.2-1,0.6-1.7c-0.8,0.5-1.1-1.6-2.3-1.3l0.4,1.1C80.2,49.7,79.9,49.3,79.7,49.6z"/>
			<path class="st2" d="M83.9,53.1l0.1,0.4c0.1-0.5,0.4-0.8,0.9-1.4c-0.3-0.7-0.5-0.8-0.8-0.8l-0.1,2L83.9,53.1z"/>
			<path class="st2" d="M84,55.3c-0.7-0.3-1-1.3-1.7-0.7c0,1.2,0.6,0.8,0.9,1.5C83,54.2,83.5,56.6,84,55.3c0,0.4,0.1,0.7,0.1,1
				c0.1-0.3,0.2-0.7,0.3-1c0,0,0,0,0,0l0,0l0,0c-0.1,0.1-0.1,0.1-0.1,0c0,0,0,0,0,0C84.2,55.3,84.1,55.3,84,55.3
				c0.1-0.5,0.2-0.1,0.3,0.1c0,0,0.1,0,0.1,0c0,0,0,0,0,0L84,53.5C83.9,53.9,83.9,54.4,84,55.3z"/>
			<path class="st2" d="M80.6,64.7c0.1-0.1,0.1-0.1,0.2-0.1C80.6,64.5,80.6,64.5,80.6,64.7z"/>
			<path class="st2" d="M81,63.9c0.1,0.1,0.4,0.3,0.3,0.7c-0.2,0.4-0.3,0-0.6,0c0.2,0.3,0.5,0.9,0.8,0.1l-0.1-0.1
				c0.2-0.8,1.1-1.7,1.2-1.6C82,63.2,81.6,63.4,81,63.9z"/>
			<path class="st2" d="M82.3,59.6L82,58l-0.6,0.8l0.4,0C81.6,59.6,82,59.4,82.3,59.6z"/>
			<polygon class="st2" points="84.4,51 85.2,51.2 84.1,50.3 			"/>
			<polygon class="st2" points="84.3,49 85,49 84.6,48.5 			"/>
			<path class="st2" d="M13.1,25l0.2,0.5C13.2,25.3,13.1,25.1,13.1,25z"/>
			<path class="st2" d="M13.1,21.8l-0.3-0.1C13,21.9,13.1,21.9,13.1,21.8z"/>
			<path class="st2" d="M64.2,5.8c-0.7-0.6-1.4-1.5-1.3-0.8l0.2,0.7C63.5,5.6,63.9,5.6,64.2,5.8z"/>
			<path class="st2" d="M30,9.9c0.1,0.1,0.1,0.1,0.2,0.2c0.2-0.2,0.3-0.5,0.5-0.7C30.4,9.6,30.2,9.7,30,9.9z"/>
			<path class="st2" d="M29.5,12.8l-0.9-0.4C28.8,12.5,29.1,12.6,29.5,12.8z"/>
			<path class="st2" d="M13.8,43.2l0.7,0.5C14.5,42.9,14.2,43.3,13.8,43.2z"/>
			<path class="st2" d="M84.1,28.1c0.3-0.6,0.4-1,0.4-1.4C84.1,27.4,83.5,27.9,84.1,28.1z"/>
			<path class="st2" d="M5.8,23.7C5.9,24,6,24.1,6.2,24.1C6.1,23.8,5.9,23.7,5.8,23.7z"/>
			<path class="st2" d="M84.5,25c-0.1,0.1-0.1,0.2-0.2,0.3c0.1,0.4,0.2,0.8,0.2,1.4C84.8,26.2,85,25.6,84.5,25z"/>
			<path class="st2" d="M43.1,76.8c0,0,0.1,0,0.1,0.1C43.3,76.8,43.2,76.8,43.1,76.8z"/>
			<path class="st2" d="M62.3,83.8c-0.2,0-0.5,0-0.8,0.1C61.7,83.9,61.9,83.9,62.3,83.8z"/>
			<path class="st2" d="M84.6,40.8C84.7,41.2,84.7,40.8,84.6,40.8L84.6,40.8z"/>
			<path class="st2" d="M81.9,42.9c-0.1-0.1-0.2-0.2-0.3-0.2C81.8,42.7,81.9,42.8,81.9,42.9z"/>
			<path class="st2" d="M80.1,20.7C80.1,20.7,80.1,20.7,80.1,20.7C80,20.8,80,20.8,80.1,20.7z"/>
			<path class="st2" d="M84.3,41.4c0.1-0.2,0.2-0.3,0.2-0.6C84.5,41,84.4,41.1,84.3,41.4z"/>
			<path class="st2" d="M84.7,41.3c0,0.1,0,0.3-0.1,0.4C84.7,41.8,84.8,41.7,84.7,41.3z"/>
			<path class="st2" d="M84.6,40.2c0,0.2,0,0.5-0.1,0.7c0-0.1,0.1-0.1,0.1-0.1C84.6,40.6,84.6,40.5,84.6,40.2z"/>
			<path class="st2" d="M12.4,72.8C12.4,72.8,12.4,72.9,12.4,72.8C12.8,73.1,12.7,73,12.4,72.8z"/>
			<path class="st2" d="M53,13C53,12.9,53,12.9,53,13C53,12.9,53,12.9,53,13L53,13z"/>
			<path class="st2" d="M51.4,13.5c0.7-0.9,1-0.8,1.5-0.6l-0.5-2L51.4,13.5z"/>
			<path class="st2" d="M13.3,33l0.6-1.1c1,1.3,0.7,2.3,1.5,1.2c-2.2-0.2-0.2-4.2-2.4-4.4l0.5-0.7c0,0.2,0.1,0.2,0.1,0.4
				c1-1.4-1.6-1-1.3-2.8c0.2-0.6,0.5-1.1,0.7-0.6l-0.5-1.4c0-0.4,0.4-0.3,0.4,0.1l-0.1-1.1l0-0.5l0-0.4l0.1,0
				c-0.3-0.2-0.8-0.8-1-1.1c0.4-0.4,0.2,0.2,0.5,0.2c-0.1-0.3-0.3-0.7-0.3-1c0.3-0.1,0.6,0,0.7,0.3c0.1,0.2,0.2,0.6,0.1,0.9
				c1.1-0.2,1-0.4,0.8-0.7c-0.1-0.2-0.2-0.4-0.2-0.6c0-0.2,0.2-0.5,0.6-0.8l0,0.8c0.7,0,0.9-0.2,1.1-0.4c0.3-0.2,0.4-0.4,0.9-0.5
				c-0.1,0-0.3,0-0.6,0c-0.3,0-0.5,0-0.8,0.1c-0.6,0-1.1,0-1.2-0.5c0.3-0.2,0.5-0.4,0.4-1.1c0.3,0.2,0.5,0.2,0.6,0
				c0.2-0.1,0.3-0.4,0.4-0.6l0.8,0.7c0.1-0.6-0.3-0.9-0.3-1.5c0.6-0.4,1.2,0.1,1.7,0.5c0.4-0.2,0.1-0.4-0.2-0.6
				c-0.3-0.2-0.7-0.4-0.2-0.9c1-0.2,1.3-0.8,2.3-1.8c0.8,0.2,0,0.6,0.4,0.8c0.1-0.3,0.2-0.6,0.4-0.9c0.2,0,0.2,0.2,0.2,0.4
				c0.5-0.4-0.2-1,0.7-1.4c0-0.3,0.2-0.3,0.4-0.3c0.1,0,0.2,0.1,0.4,0.2c0.1,0.1,0.3,0.2,0.5,0.3c0.7,0.4,1.5,0.8,2.2,0.1
				c0.3,0.3-0.2,0.6-0.1,1c1.9-0.8,1.6-0.6,3.2-1.7l1.3,0.7c-1-0.8,0.3-1.7,1.4-2.4c-0.3-0.4-0.6-0.7-0.8-0.8l1.7-0.5
				c0.2,0.2,0,0.5-0.2,0.9c0.1-0.1,0.2-0.2,0.3-0.2c0.6,0.4,0.3,1-0.1,1.5c-0.2-0.2-0.4-0.4-0.6-0.6c-0.4,0.6-0.8,1.3-0.7,1.9
				c0.1-0.1,0.3-0.2,0.6-0.3c-0.1,0.2-0.2,0.3-0.1,0.4c0.1,0.1,0.2-0.1,0.5-0.4l0.4,1.1l0.1-0.5l2.3,0.7c1.6-1.1,3-2.8,5.6-3.3
				c-0.6,0.8-0.1,1.4-0.2,2.3c-0.7-1-2,0.4-3.3,0.2c0.7,0.1,0.5,0.6,0.4,0.7l2.4-0.9c-0.1,0.8,0.5,0.6,1.1,0.9
				c-0.5-1.6,1.8-1.1,2.7-1.5c0.1,0.5-0.2,1.1-1.4,1c1.3,1.2,1.7-1.9,3-0.9c-0.3,0-0.4-0.1-0.6,0.2c0.7-0.5,2.3-0.1,1.9,0.4l-0.3,0
				c1.9,0.2,5.8,0,6.1-1.3c0,0.2-0.3,1.6-0.4,1.9l3.4-4.6c-0.3,1.2,0.9,3.9-0.7,4.6c0.5,0.2,1,0.4,2-0.1c-0.3-0.2-0.8-1.7-0.4-1.8
				c1.2,1.3,0.8,0.7,2.3,1.8c-0.5-0.2,0.1-2.1,0.8-2c-0.1,0.3,0.1,1.8-0.2,2l1.8-1.8c-0.5,0.3-0.1,1.5,0.3,2c-0.2-0.4,1.6,0,2.1-0.1
				L61,12.5c2.1,0.3,2-2.5,4.1-2.4c-0.2,0.4-0.6,2.3,0.4,2.5c0.2-0.5,0.8-1.6,1.5-2.6c0.4-0.5,0.7-1.1,1.2-1.5
				c0.5-0.4,1-0.8,1.6-0.9L70,8.2c0.3-0.1,0.6-0.1,0.8-0.2l0.9-0.1c-0.3,0.3-0.8,0.6-1.3,1c-0.5,0.4-1,0.9-1.5,1.3
				c-0.5,0.5-0.9,1-1.3,1.4c-0.4,0.5-0.8,0.8-1.2,1.1c0.8,0.4,0.2,0.6,1.4,0.6c0.1,0.3,0.1,0.4-0.2,0.6c-0.3,0.1-0.6,0.2-0.8,0.2
				l0.7,0.1l0.3,0l0.2,0.1c0.3,0.1,0.6,0.1,0.8,0.2c0-0.5,0.4-0.8,0.8-0.9c0.4-0.1,0.8-0.3,0.9-0.7c-0.8,0.2-1.6,0.4-2.3,0.7
				c0-0.5,0.3-1.3,1-1.8c0.3-0.3,0.7-0.5,1.1-0.5c0.4-0.1,0.9-0.1,1.3,0.2c0.1,0.3-0.1,0.7-0.4,1.1c-0.3,0.4-0.6,0.8-0.6,1
				c0.1-0.1,0.5-0.2,0.9-0.2c0.3,0.1,0.7,0.2,0.7,0.3c-0.3,0.1-0.5,0.2-0.8,0.3c0.3,0.4,0.7,0.1,1.1,0.1c0.2,0,0.4,0,0.6,0.1
				c0.2,0.1,0.3,0.3,0.3,0.7c0.1,0.1,0.1,0.6,0.1,0.9c0,0.3,0,0.5,0.2,0.3c0.5-1.2,2.8-4.2,3.8-4.5c0,0,0.1,0.2,0.2,0.5
				c0.1,0.3,0.2,0.6,0.3,1c0.2,0.7,0.3,1.6,0.2,2c-0.2,0.6-0.8,0.6-1.4,0.8c-0.6,0.1-1.2,0.2-1.4,0.7c0.2-0.2,0.7-0.1,0.9,0
				c0,0.5-0.8,0.4-0.3,1c1-0.4,0.7,1.5,1-0.1c0.3,0.3,0.4,0.5,0.4,0.8c0,0.3,0,0.5,0.2,1c0.3-0.3,0.9-0.2,1.5,0
				c0.3,0.1,0.6,0.3,0.9,0.5c0.2,0.2,0.5,0.5,0.6,0.7c-0.3,0-0.6,0.3-0.7,0.4c0,1-0.1,1.8-0.2,2.5c-0.1,0.8-0.3,1.5-0.3,2.4
				c-0.3,0.2-0.6,1.1-1,0.7c0.2,0.3,0.6,0.5,0.6,1.1c-0.9,1.1-0.1-1.3-1.3-0.4c0.6,0.1,0.9,1.5,1.3,2.3c1-0.3,0.2-1.9-0.2-2.7
				c1.3,0,2.7,1.4,3.4,3.4c0.3,1.6-0.9,0.7-0.7,1C81.4,34,84,33.5,83,36c-0.9,1-1.7,0-2.3,0.3c-0.3-1.3,0.5-2,0.5-2.8l-0.4,1.1
				c-0.3-0.4-0.5-1.3-0.3-1.7c-0.8,0.8-0.1,5-0.9,7.3c0.3,0.4,0.6,1.1,0.9,0.8L80.5,40c0.7-0.7,1,1.4,1.3,0.4c0.5,1,1.2,2,0.9,3.4
				l-1,0.3c0.3,0,0.6-0.9,0.3-1.3c0.4,0.6-1.3,2.1,0,2.7l0.7-1c0.5,1,1.5,2.2,1.2,3.4c1-0.5-0.1-0.3,1-1.1c-1.4,0.7,0.1-3.1-1.4-1.9
				c1.3-0.9,0.6-1.5,1.7-2.7c-0.3,0-0.6,0.4-0.5-0.6c-0.1,0-0.2-0.2-0.3-0.2c0,0,0,0,0-0.1c0,0,0,0,0,0.1c0,0-0.1,0,0,0
				c-0.1,0.2-0.3,0.4-0.5,0.5c-0.7-0.5-0.7-2.1-1.1-2.7c0.2-0.6,0.4,0.3,0.7-0.1l-0.6-0.8c0.7-0.1,1.2-1.6,1.6-0.2l0-1.3
				c0.4-0.7,0.6-1.8,0.3-2.4c0.2-0.6-0.8-1.5-0.2-1l-0.4-2l0.2,0c0.1-2-1.2-4,0.1-6.3c-0.2-0.7-0.4-1.3-0.2-2.5l0.6-0.2
				c-0.1-0.3,0-1.3,0.1-2.1c0-0.8-0.1-1.5-0.4-1.7c0.4-0.4,0.4-0.9,0.4-1.6c0-0.7-0.3-1.4-0.7-2.1c-0.7-1.4-1.8-2.7-2.3-3.6L81.1,12
				c-0.8-1.1-1.9-2-3.4-2.7l-0.4,0.6c-0.4-0.1-0.7-0.3-1-0.5c-0.4-0.2-0.7-0.6-1.1-0.9c-0.4-0.3-0.8-0.6-1.3-0.9
				c-0.5-0.3-1-0.5-1.5-0.7c0.2-0.2,0.8,0,1.1,0.3c-1-1.3-2.6-1.3-4-1.1c-0.4,0.1-0.7,0.1-1,0.2c-0.3,0.1-0.6,0.1-0.9,0.2
				c-0.5,0.1-1,0-1.5-0.3c-0.5,0.3-0.8,0.2-1.1,0c0,0,0.1,0,0.1,0c0,0-0.1,0-0.2,0c-0.2-0.1-0.4-0.3-0.7-0.4
				c0.2,0.2,0.4,0.3,0.5,0.4c-0.4,0-0.9,0.1-1.5,0.3l-0.2-0.8c0,0-0.1,0-0.1,0c-0.5-0.3-0.4,0.4-0.1,0.9c-0.3,0.1-0.5,0.3-0.7,0.5
				c-0.4-1.2-1.4,0.4-2-0.9c-0.4,0.6-2.7,0.5-3,1.8c0-0.2-0.2-0.3,0.1-0.3c-0.6-0.2-1.2-0.3-1.7,0.1l-0.3-1l-1.3,1.3
				c-0.8-0.6-1.1-0.9-0.3-1.7c-1.9,1.2-1.6,0.4-3.2,1.6l0.1-0.6c-0.6,0-1.5,0.9-1.9,0.3c-1.3-1.2-6.4-0.2-9.8-1.3
				c0.6,1.9-1.6-0.8-1.7,0.6C37,6.7,36.5,6.4,37,6.1c-1.7,0.4-2.6-0.7-3.7,0.5c-0.2-0.4,0.4-0.6,0.2-0.9c-0.1,0.1-0.5,0.4-0.7,0.1
				c-0.2-0.3,0.2-0.4,0.5-0.6c-1.7,0.1-1.9,1.4-2,2.7c-0.9-0.6-1.3-0.5-2,0.3c-0.3-0.4-0.8-0.8,0.3-1c-0.6-0.1-3.7-0.6-3.8,0.4
				c-0.2-0.3-0.9-0.1-1,0c-1.4-0.1-1.5-0.2-2.8-0.1l0.4,0.2c-0.5,1.2-1.2,0.3-2.4,0.5l0-0.1c-1.5-0.2-1.8,0-2,0.2
				c-0.3,0.2-0.5,0.3-2,0.4l0.4,0.6c0.2,0.8-0.4,0.8-1.2,0.8c-0.4,0-0.9,0.1-1.3,0.2c-0.4,0.2-0.8,0.4-1,0.8l0.7,0
				c-0.2,0.5-1,0.4-1.9,0.4c-0.9,0-1.9,0-2.4,0.3c-0.3,0.1,0-0.4,0.2-0.7c-0.6,0.3-0.9,0.6-1,0.8c-0.1,0.2,0,0.3,0.2,0.4
				c0.3,0.2,0.8,0.5,0.4,1.3c-0.6,0-0.9-1.2-1.7,0c-0.4,0.2-0.5,1.3-0.6,2.5c-0.1,1.2-0.1,2.4-0.8,3.2C6.4,19,6.8,18.7,7,19.6
				c0,0.3-0.2,0.7-0.3,1.1c-0.1,0.4-0.3,0.8-0.5,1.3c-0.3,0.8-0.4,1.4,0.3,1.9c-0.1,0.1-0.2,0.2-0.3,0.2c0.3,0.8,0.6,2.7,1.3,3.2
				c-2.6,0.8,1.3,5.1-1.1,5.1L6.4,35l-0.2-0.1c-0.2,1.6,0.4,2.2,1,2.8C7,38,6.8,37.8,6.7,37.7c-0.5,2.4-0.4,2.6,0.8,4.6l-0.8,0.2
				c0.5,0.5-1.2,3.4-0.3,5.8c-0.1,0-0.2-0.1-0.4-0.3c0.9,2.6-2.2,6.3,0.7,7.2L7.4,57c0.2-2.2,1.2,0.3,1.7-0.6c0.2,0.9-0.9,2.3-1,1.2
				l0.1-0.2c-1.5-0.4-0.5,2.8-1.5,2.7c0,2.2-0.2,4.4-0.4,6.5c-0.1,0.5-0.1,1.1-0.2,1.6c0,0.6-0.1,1.3,0,2c0.1,0.7,0.1,1.3,0.3,2
				c0.1,0.3,0.1,0.6,0.2,1L7,74.1c0.3-0.3,0.6-0.6,0.9-0.9c0.2,0.5,0.3,1.1,0.6,1.6c0,0.5-0.5,1-1.1-0.2c-0.2,0.4,0.2,0.9,0.6,1.2
				c0.5,0.3,1,0.4,1.1,0.3c0.2,0.6,0.2,0.9,0.1,1c-0.1,0.1-0.3,0.1-0.6-0.1c-0.5-0.2-1-0.7-0.9-0.4c0.2,0.3,0.4,0.6,0.7,0.9
				c0-0.1,0-0.2,0-0.3c0.4,0.2,0.8,0.3,1.1,0.4c0.3,0.1,0.6,0.4,1.1,0.9c0.5,0.9-0.2,0.9,0.1,1.2c-0.1,0.1,0,0.2,0.4,0.4
				c0.5,0.6,1.2,1,1.8,1.5c-0.1-0.4-0.2-0.9-0.2-1.3c0.3,0.1,0.5,0.2,0.7,0.3c0.2,0.1,0.4,0.2,0.5,0.2c0.3,0.1,0.3,0,0.2-0.7
				c0.1,1.1,1.9,2.2,3.8,2.7c0.2,0.1,0.5,0.1,0.7,0.2c0.2,0,0.5,0.1,0.7,0.1c0.5,0.1,0.9,0.1,1.3,0.1c0.4,0,0.7,0,1,0.1
				c0.2,0,0.4,0.1,0.5,0.1c1.1-0.7,2.2-0.7,3.6-0.6c-0.3-0.2-0.5-1.2,0.6-1.1c-0.4,2.1,2.2,0.9,3.1,2.5c-0.9-1,3.4-0.3,2-1.7
				c1,0.2,0.1,0.8,0.8,1.3c2.4-0.8,5.2,0.5,8.1,0.3c0-0.3-0.4-0.7,0.2-1.1l1.5,1.4c0.6-0.1,0.5-1.6,1.6-0.6c-0.1-0.2-0.4-0.6,0-0.7
				c5.7,1.4,11.7-1.1,17.4,1.4c-0.8-0.5-0.3-0.6,0.3-0.6c-0.4-0.1,0-0.7-0.1-1.1l2.4,1.1c0.4-1.1,2.6-0.1,2.9-1.1L66,82.9
				c1-1.2-1.4-2.6-1.3-4.2c-1.1,1.3-3-2-4.9-0.1c-0.4-0.3,0.4-0.5,0.1-0.8c-0.5,0.7-1,0.8-2.1,0.5l0.1-0.2c-3,0.2-4.3-0.5-7.6-0.9
				l0.2,0.8c-0.7-0.1-0.9-0.3-1.2-0.5c-0.8,1.1,2,0.1,1.3,1.3c-1-1.5-5.1,0-5.7-1.8c-1.1,0,0.3,0.9-0.8,0.9l-0.3-0.5l-0.3,0.6
				c-0.7-0.1-1.1-0.7-1.1-1.1c0.2,0,0.5-0.1,0.7-0.1c-0.9-0.6-2.7,0.2-3,0l1.1,0.3c-3,0.4-6.7-0.2-9.7,0.8l0.2,0.4
				c-2.2,0.7-1.8-0.4-4.2-0.1l0.1-0.1c-0.5,0.4-1.1,0.5-1.8,0.5c0.6-0.4-1.2-0.8-0.4-1.3c-2.4,0.7-1.2,0.6-2.8,1.9l-0.4-0.6
				c-0.6,0.5-0.6,0.8-1.7,0.9c0.5-0.2,0.3-0.5,0.2-0.7c-0.1-0.3-0.2-0.5,0.2-0.8c-0.5-0.3-0.9-0.5-1.2-0.5c-0.4-0.1-0.7,0-1,0
				c-0.3,0-0.6,0-0.8-0.1c-0.2-0.2-0.3-0.4-0.3-0.9c-0.8,0.5-0.5,0.9-0.1,1.2c0.4,0.3,1,0.4,0.7,0.4c0.1,0.3-0.2,0.5-0.6,0.6
				c-0.4,0.1-1-0.1-1.3-0.3c-0.3-0.2-0.3-0.8-0.4-1.5c-0.1-0.7-0.1-1.4-0.7-1.9c0.1,0.1,0.2,0,0.3,0.1c0-0.2-0.1-0.3-0.2-0.4
				c-0.1-0.1-0.3-0.2-0.4-0.2c-0.1-0.1-0.3-0.2-0.4-0.3c-0.1-0.1-0.1-0.3-0.1-0.6c-0.5,0.1-0.7-0.1-0.8-0.2c-0.1-0.2-0.3-0.3-0.8,0
				l0.5,0.6l0.6,0.5c-0.4-0.2-1-0.3-1.6-0.6c-0.3-0.1-0.5-0.3-0.7-0.6c-0.2-0.3-0.3-0.6-0.3-1.1c0.3,0,0.7,0.3,1.1,0.5
				c0.1-0.5-0.6-0.7-0.4-1.2c0.6-0.1,0.8,0.3,1.1,0.7c0.2,0.5,0.6,1,1.2,1.1c0.1-0.3-0.3-0.5-0.5-0.7c-0.2-0.2-0.3-0.4,0.4-0.5
				c-0.9,0.1-1-0.3-1.1-0.7c-0.1-0.4,0-0.9-0.8-1.3l0.7-0.1c-0.1-0.1-0.5-0.4-0.6-0.7c0.4,0.1,0.7,0.3,1,0.4
				c-0.2-0.2-0.3-0.3-0.3-0.5c0-0.2,0.1-0.4,0.2-0.6l0.2-0.3c0-0.1,0.1-0.3,0.1-0.4c0.1-0.3,0.1-0.5,0-0.8c0,0.6,0,0.9-0.1,1.1
				c-0.1,0.2-0.2,0.1-0.4,0.1c-0.3,0-0.7-0.2-0.9,0.2c-0.1-0.2-0.2-0.6-0.2-0.8c0-0.2,0-0.4,0.1-0.6c0.1-0.3,0.4-0.5,0.7-0.8
				c0.6-0.4,1.2-0.9,1-2.5c0.1,0.4-0.5,1.6-0.8,0.9c0.2-0.6,0.4-1.4,0.8-1.8c-0.2-2.1-0.8,0.3-1.2-0.6c0.9-0.7-0.4-1-0.7-1.9l0.8,0
				c0.5-2.4-1.6-0.6-1-2.8l1.1,0.9l-0.3-1.1l0.9,0.2c-0.6-1.2-0.5-1.6-0.2-2.8c-0.5,0.3-1.4-0.2-1.4-1.2c0.5-0.7,0.7,0.4,0.6-1.1
				c0.5,0.3,1.1,0.7,0.4,1.4c0.3,0.1,0.5,0.3,0.7,0.4c0.5-0.8,0.1-1.9,0.1-2.5c0,0.2-0.1,0.5-0.2,0.6l-1.1-2.2
				c0.3-0.3,0.5-0.1,0.7,0.2c-0.1-0.4-0.4-0.7-0.5-1.4c0.6,0.2,1.3,0.1,1.6,1l-0.7-2.1c0.3-0.1,0.7-1.1,1-0.8
				c0.4-1.1-1.2-2.8-0.7-4.3c-0.1-0.1-0.2-0.2-0.3-0.6c0.1-1.4,0.9-2.7,0.1-4.4l1.1-1c-0.3-1.3-1.4,1.3-1.8-0.9
				c-0.4-1.6,1-0.6,1.3-1.1c-0.6-0.8-1.7-2.1-0.8-3.5C13.4,32.2,13.2,32.6,13.3,33z M13.6,18.4c0,0.3,0.4,0.9-0.1,0.8
				C12.8,18.7,13.2,18.6,13.6,18.4z M32.4,11.4c-0.2,0.3-0.6,0.1-1-0.2C31.7,11.2,32,11.2,32.4,11.4z M84,36C84,36,84,36,84,36
				C84.3,35.3,84.2,35.6,84,36z M83.7,37.5c0.1,0.1,0.2,0.1,0.3,0.1c-0.2-0.1-0.2-0.4-0.2-0.8C83.7,36.9,83.5,37.1,83.7,37.5z
				 M11.1,79.6L11,79.3C11.7,79.6,11.4,79.6,11.1,79.6z"/>
			<path class="st2" d="M29.6,12.4c-0.1-0.1-0.1-0.3-0.1-0.4C29.3,12.1,29.3,12.3,29.6,12.4z"/>
			<path class="st2" d="M13.7,43.1C13.7,43.2,13.7,43.2,13.7,43.1c0,0.1,0.1,0.1,0.1,0.1L13.7,43.1z"/>
			<path class="st2" d="M75.6,17c0-0.2,0-0.4,0.1-0.6C75.5,16.5,75.5,16.7,75.6,17z"/>
			<path class="st2" d="M85,45.2l-0.2-0.9c0,0.5-0.1,0.6-0.3,0.8C84.7,45.1,85,44.9,85,45.2z"/>
			<path class="st2" d="M80.2,53.4c0.1,0.1,0,0.3,0.1,0.4l0.4,0C80.7,53.2,80.4,52.8,80.2,53.4z"/>
			<path class="st2" d="M82.4,46.1c-0.6,0.1-0.4,0.7-0.3,1.3c0,0,0-0.1,0-0.1C83,47.5,82.7,46.8,82.4,46.1z"/>
			<path class="st2" d="M82.2,47.6c0,0.2,0,0.4,0,0.6C82.5,48.3,82.3,47.9,82.2,47.6z"/>
			<path class="st2" d="M84.1,39.4c-0.2,0.3,0.8,0.2,0.6,0.4C85.5,40.1,83.7,37.7,84.1,39.4z"/>
			<polygon class="st2" points="80.3,46.6 81.1,46.4 80.5,46 			"/>
			<path class="st2" d="M80.9,41.5l-0.2,1c0.1,0,0.2,0.1,0.3,0.3C81,42.1,81.1,41.4,80.9,41.5z"/>
			<path class="st2" d="M81,42.8c0,0.3,0,0.7,0.1,0.8C81.1,43.5,81.1,43.1,81,42.8z"/>
			<polygon class="st2" points="80.1,45.2 80.2,44.9 80.3,44.2 			"/>
			<path class="st2" d="M81.1,30.2l-0.2-1.1c-0.3-0.1-0.4,0.2-0.3,0.6C80.7,30,80.8,30.4,81.1,30.2z"/>
			<path class="st2" d="M78.9,33.7c0.2-0.3,0.3-0.3,0.6-0.5l-1,0L78.9,33.7z"/>
			<path class="st2" d="M78.6,30.3c-0.3-0.1-0.8-1.7-0.7-0.2C78.2,30.2,78.4,31.4,78.6,30.3z"/>
			<path class="st2" d="M76.8,14.2l0.2,0.2l1.2-1.1C77.8,13.6,77.3,13.9,76.8,14.2z"/>
			<path class="st2" d="M63.2,14c1.4,0.4,0.3-1,1.5-0.5c0.3-0.4-1-0.4-0.7-0.7C63.2,13.2,62.8,13,63.2,14z"/>
			<path class="st2" d="M64,12.8c0.1-0.1,0.3-0.1,0.4-0.2C64.2,12.7,64.1,12.7,64,12.8z"/>
			<polygon class="st2" points="65.5,84.7 66.4,85 65.8,84.5 			"/>
			<path class="st2" d="M67.2,83.5l0.2,1l0.5-0.9C67.7,83.6,67.4,83.7,67.2,83.5z"/>
			<path class="st2" d="M16.2,18.1L16,17.9c-0.3-0.1-0.4,0-0.5,0.2C15.7,18.1,16,18.1,16.2,18.1z"/>
			<polygon class="st2" points="14.1,26.1 14.1,25.9 13.2,26.3 			"/>
			<path class="st2" d="M15.3,36.1c0-0.4-0.2-0.9-0.1-1.3C15.3,35.6,14.1,36.2,15.3,36.1z"/>
		</g>
	</g>
</g>
<g id="telegram" class="st0">
	<g class="st1">
		<path class="st2" d="M46.3,27.2c-10.2,0-18.4,8.2-18.4,18.4S36.1,64,46.3,64s18.4-8.2,18.4-18.4S56.5,27.2,46.3,27.2z M53.7,39.4
			L48,55.3c-0.2,0.6-1,0.6-1.3,0.1l-3-6.5c-0.1-0.2-0.3-0.4-0.5-0.5l-5.9-3.1c-0.5-0.3-0.5-1.1,0.1-1.3l15.5-5.6
			C53.4,38.3,53.9,38.8,53.7,39.4z"/>
		<g>
			<path class="st2" d="M68.9,85.5c-0.5,0-0.3,0.6-0.4,0.8C69.3,86.1,68.8,85.4,68.9,85.5z"/>
			<path class="st2" d="M76.1,81.9l0,0.3c0.2-0.4,0.4-0.8,0.6-1.2C76.5,81.3,76.3,81.6,76.1,81.9z"/>
			<path class="st2" d="M81.2,76.9c-0.3,0-0.6,0.1-0.8,0.4c-0.2,0.2-0.4,0.5-0.5,0.8c-0.1,0.3-0.3,0.7-0.5,1
				c-0.2,0.3-0.4,0.6-0.8,0.7l-0.3-0.1c0.1,0.4,0.1,0.7,0.2,1.1c0.3-0.3,0.6-0.6,0.8-1c0.2-0.4,0.5-0.7,0.7-1.1
				C80.4,77.9,80.8,77.3,81.2,76.9z"/>
			<path class="st2" d="M85.1,74.1c-0.2,0.1-0.3-0.2-0.3-0.2c0,0,0.1,0.2-0.2,1.2c0.1-0.1,0.1-0.1,0.2-0.1
				C84.8,74.7,85,74.5,85.1,74.1z"/>
			<path class="st2" d="M84.8,74.9C84.5,75.7,85.3,74.5,84.8,74.9L84.8,74.9z"/>
			<path class="st2" d="M85.4,70.9c0.1,0.4,0.2,0.8,0.2,1.2c0.3-0.2,0.5-1.2,0.6-0.8C86.2,70,85.9,70.3,85.4,70.9z"/>
			<path class="st2" d="M84.7,69.8l0.1,0.6C84.9,70.3,85,70.1,84.7,69.8z"/>
			<path class="st2" d="M85,71.6c-0.1-0.4-0.1-0.8-0.2-1.3c-0.2,0.1-0.6,0.1,0.1,0.6C84.6,70.8,84.9,71,85,71.6z"/>
			<path class="st2" d="M84.7,72.3c-0.4,0.6-0.7,1.3-0.8,0.1c-0.2,1-0.1,1.5,0.2,1.5C84.3,73.9,84.6,73.3,84.7,72.3z"/>
			<path class="st2" d="M80.3,76l-0.6,0.4c0,0.2,0,0.5,0,0.7C79.7,76.8,80.6,76.1,80.3,76z"/>
			<path class="st2" d="M86.1,65.2c-0.2-0.1-0.6,0.3-1,0.3l0.3,0.6C85.6,65.9,85.8,65.2,86.1,65.2z"/>
			<path class="st2" d="M85.2,65.6l-0.4-0.9C84.7,65.5,84.9,65.6,85.2,65.6z"/>
			<path class="st2" d="M83.4,69.5c0.3,0.6,0.5,1.3,0.7,1.9c-0.2-0.8-0.4-1.6-0.7-2.3L83.4,69.5z"/>
			<polygon class="st2" points="86.1,61.7 86.7,62.2 85.9,61.3 			"/>
			<path class="st2" d="M86,59.3c0.5,0.4,0.8-0.5,1.1-0.1c-0.1-0.6-0.5-1.2-0.8-1.7C86.5,58.1,86.4,58.6,86,59.3z"/>
			<path class="st2" d="M85.8,56.7c0.1,0.3,0.3,0.5,0.5,0.8C86.2,57.3,86,57,85.8,56.7z"/>
			<path class="st2" d="M84.9,63c0.1-0.1,0.5-0.2,0.7-0.7l-0.7,0.4C84.9,62.8,84.9,62.9,84.9,63z"/>
			<path class="st2" d="M84.8,62.7L84.8,62.7c0-0.4,0.1-0.7,0.1-0.8C84.9,62,84.9,62.2,84.8,62.7z"/>
			<path class="st2" d="M84.9,63.1C84.9,63.1,84.9,63.1,84.9,63.1C84.8,63.1,84.8,63.1,84.9,63.1z"/>
			<path class="st2" d="M84,67.1c-0.4-0.5-0.8-1.7-1.4-0.6C83.1,66.9,83.5,66.2,84,67.1z"/>
			<path class="st2" d="M84,63.6l-0.2,1c0.2,0,0.4-0.2,0.6,0.1L84,63.6z"/>
			<polygon class="st2" points="83.8,63.1 84,63.6 84.1,63.2 			"/>
			<path class="st2" d="M85.1,58.4c-0.3-0.4-0.3-0.9-0.4-1.4c-0.1,0.6-0.2,1.1-0.2,1.7C84.8,58.8,85.1,59,85.1,58.4z"/>
			<path class="st2" d="M84.9,60.5C84.9,60.5,84.9,60.4,84.9,60.5C84.8,60.4,84.8,60.5,84.9,60.5z"/>
			<path class="st2" d="M84.7,51.8l-0.1,0.1c0,0,0.1,0,0.1,0L84.7,51.8z"/>
			<path class="st2" d="M84.4,58.8c-0.1,0.4,0,0.7,0.2,0.9c-0.1-0.3-0.1-0.7-0.1-1C84.4,58.6,84.4,58.6,84.4,58.8z"/>
			<path class="st2" d="M85.4,55.3c-0.1,0.2-0.3,0.5-0.4,0.7C85.3,55.8,85.6,55.3,85.4,55.3z"/>
			<path class="st2" d="M85.1,60.2C85.1,60.3,85.1,60.3,85.1,60.2C85.3,60.2,85.2,60.2,85.1,60.2z"/>
			<path class="st2" d="M85.1,60.2c-0.1-0.2-0.3-0.4-0.4-0.6c0.1,0.3,0.1,0.5,0.2,0.7C84.9,60.3,85,60.3,85.1,60.2z"/>
			<path class="st2" d="M80.3,50.2c0.6,0.1,1.2,1.2,0.5,2.1c0.5,0.9,2.6,0.3,3.7-0.5c-0.3,0-0.5,0-0.9-1c-0.3,0.3-0.8,2.2-1.4,1.3
				c-0.3-1.3,0.2-1.1,0.6-1.7c-0.8,0.5-1.2-1.6-2.3-1.4l0.4,1.1C80.8,50.3,80.5,49.9,80.3,50.2z"/>
			<path class="st2" d="M84.6,53.7l0.1,0.4c0.1-0.5,0.4-0.8,0.9-1.4c-0.3-0.7-0.5-0.8-0.8-0.8l-0.1,2L84.6,53.7z"/>
			<path class="st2" d="M84.6,55.9c-0.7-0.3-1-1.3-1.7-0.7c0,1.2,0.6,0.8,0.9,1.5C83.6,54.9,84.2,57.3,84.6,55.9
				c0,0.4,0.1,0.7,0.1,1c0.1-0.3,0.2-0.7,0.3-1c0,0,0,0,0,0l0,0l0,0c-0.1,0.1-0.1,0.1-0.1,0c0,0,0,0,0,0C84.8,56,84.7,56,84.6,55.9
				c0.1-0.5,0.2-0.1,0.3,0.1c0,0,0.1,0,0.1,0c0,0,0,0,0,0l-0.4-1.9C84.5,54.5,84.6,55.1,84.6,55.9z"/>
			<path class="st2" d="M81.2,65.5c0.1-0.1,0.1-0.1,0.2-0.1C81.2,65.3,81.2,65.2,81.2,65.5z"/>
			<path class="st2" d="M81.6,64.7c0.1,0.1,0.4,0.3,0.3,0.7c-0.2,0.4-0.3,0-0.6,0c0.2,0.3,0.5,0.9,0.8,0.1l-0.1-0.1
				c0.2-0.8,1.1-1.7,1.2-1.6C82.6,64,82.2,64.2,81.6,64.7z"/>
			<path class="st2" d="M82.9,60.3l-0.3-1.6L82,59.5l0.4,0C82.2,60.3,82.7,60.1,82.9,60.3z"/>
			<polygon class="st2" points="85.1,51.6 85.8,51.8 84.8,50.9 			"/>
			<polygon class="st2" points="85,49.6 85.6,49.7 85.3,49.1 			"/>
			<path class="st2" d="M13.1,25.5l0.2,0.5C13.3,25.7,13.2,25.6,13.1,25.5z"/>
			<path class="st2" d="M13.2,22.2l-0.3-0.1C13.1,22.3,13.2,22.3,13.2,22.2z"/>
			<path class="st2" d="M64.7,6.1c-0.7-0.6-1.4-1.5-1.3-0.8l0.2,0.7C64,5.8,64.4,5.9,64.7,6.1z"/>
			<path class="st2" d="M30.2,10.2c0.1,0.1,0.1,0.1,0.2,0.2c0.2-0.2,0.3-0.5,0.5-0.7C30.6,9.9,30.4,10,30.2,10.2z"/>
			<path class="st2" d="M29.7,13.1l-0.9-0.4C29,12.8,29.3,12.9,29.7,13.1z"/>
			<path class="st2" d="M13.9,43.8l0.7,0.5C14.6,43.5,14.2,43.9,13.9,43.8z"/>
			<path class="st2" d="M84.7,28.6c0.3-0.6,0.4-1,0.4-1.5C84.8,27.8,84.2,28.4,84.7,28.6z"/>
			<path class="st2" d="M5.8,24.1c0.1,0.3,0.3,0.4,0.4,0.4C6.1,24.2,5.9,24.1,5.8,24.1z"/>
			<path class="st2" d="M85.2,25.4c-0.1,0.1-0.1,0.2-0.2,0.3c0.1,0.4,0.2,0.9,0.2,1.4C85.5,26.6,85.6,26,85.2,25.4z"/>
			<path class="st2" d="M43.4,77.7c0,0,0.1,0,0.2,0.1C43.6,77.7,43.5,77.7,43.4,77.7z"/>
			<path class="st2" d="M62.8,84.7c-0.2,0-0.5,0-0.8,0.1C62.2,84.8,62.4,84.8,62.8,84.7z"/>
			<path class="st2" d="M85.3,41.3C85.4,41.8,85.4,41.4,85.3,41.3L85.3,41.3z"/>
			<path class="st2" d="M82.6,43.4c-0.1-0.1-0.2-0.2-0.3-0.2C82.4,43.3,82.5,43.4,82.6,43.4z"/>
			<path class="st2" d="M80.7,21.1C80.7,21.1,80.7,21.1,80.7,21.1C80.6,21.2,80.6,21.2,80.7,21.1z"/>
			<path class="st2" d="M85,42c0.1-0.2,0.2-0.4,0.2-0.6C85.1,41.5,85.1,41.7,85,42z"/>
			<path class="st2" d="M85.3,41.9c0,0.2,0,0.3-0.1,0.4C85.4,42.3,85.4,42.3,85.3,41.9z"/>
			<path class="st2" d="M85.3,40.7c0,0.2,0,0.5-0.1,0.7c0-0.1,0.1-0.1,0.1-0.1C85.3,41.2,85.3,41,85.3,40.7z"/>
			<path class="st2" d="M12.5,73.6C12.5,73.6,12.5,73.7,12.5,73.6C12.9,73.9,12.7,73.8,12.5,73.6z"/>
			<path class="st2" d="M53.4,13.3C53.4,13.3,53.4,13.2,53.4,13.3C53.4,13.2,53.4,13.2,53.4,13.3L53.4,13.3z"/>
			<path class="st2" d="M51.8,13.8c0.7-0.9,1-0.8,1.5-0.6l-0.5-2L51.8,13.8z"/>
			<path class="st2" d="M13.3,33.5l0.6-1.1c1,1.3,0.7,2.3,1.6,1.3c-2.2-0.2-0.2-4.3-2.4-4.4l0.5-0.7c0,0.2,0.1,0.2,0.1,0.4
				c1-1.4-1.6-1-1.3-2.9c0.2-0.6,0.5-1.1,0.7-0.6l-0.5-1.4c0-0.4,0.4-0.3,0.4,0.1l-0.1-1.1l0-0.5l0-0.4l0.1,0
				c-0.3-0.2-0.8-0.8-1-1.1c0.4-0.4,0.2,0.2,0.5,0.2c-0.1-0.3-0.3-0.7-0.3-1c0.3-0.1,0.6,0,0.7,0.3c0.1,0.2,0.2,0.6,0.1,0.9
				c1.2-0.2,1-0.4,0.8-0.7c-0.1-0.2-0.2-0.4-0.2-0.6c0-0.2,0.2-0.5,0.6-0.8l0,0.8c0.7,0,0.9-0.2,1.2-0.4c0.3-0.2,0.4-0.4,1-0.5
				c-0.1,0-0.3,0-0.6,0c-0.3,0-0.6,0-0.8,0.1c-0.6,0-1.1,0-1.2-0.5c0.3-0.2,0.5-0.4,0.4-1.1c0.3,0.2,0.5,0.2,0.6,0
				c0.2-0.1,0.3-0.4,0.4-0.6l0.8,0.7c0.1-0.6-0.3-0.9-0.3-1.5c0.6-0.4,1.2,0.1,1.8,0.5c0.4-0.2,0.1-0.4-0.2-0.6
				c-0.3-0.2-0.7-0.4-0.2-0.9c1-0.2,1.3-0.8,2.3-1.8c0.8,0.2,0,0.6,0.4,0.9c0.1-0.3,0.2-0.6,0.4-0.9c0.2,0,0.2,0.3,0.2,0.4
				c0.5-0.4-0.2-1,0.7-1.4c0-0.3,0.2-0.3,0.4-0.3c0.1,0,0.2,0.1,0.4,0.2c0.1,0.1,0.3,0.2,0.5,0.3c0.7,0.4,1.6,0.8,2.3,0.1
				c0.3,0.3-0.2,0.6-0.1,1c1.9-0.8,1.6-0.6,3.2-1.7l1.3,0.7c-1-0.8,0.3-1.7,1.4-2.4c-0.3-0.4-0.6-0.7-0.8-0.9l1.7-0.6
				c0.2,0.2,0,0.5-0.3,0.9c0.1-0.1,0.2-0.2,0.3-0.2c0.6,0.4,0.3,1-0.1,1.5c-0.2-0.2-0.4-0.4-0.6-0.6c-0.4,0.6-0.8,1.3-0.7,1.9
				c0.1-0.1,0.3-0.2,0.6-0.3c-0.1,0.2-0.2,0.3-0.1,0.4c0.1,0.1,0.2-0.1,0.5-0.4l0.4,1.1l0.1-0.5l2.3,0.7c1.6-1.2,3.1-2.8,5.7-3.3
				c-0.6,0.8-0.1,1.4-0.2,2.4c-0.7-1.1-2,0.4-3.4,0.2c0.7,0.1,0.5,0.6,0.4,0.7l2.4-1c-0.1,0.8,0.5,0.6,1.1,0.9
				c-0.5-1.6,1.8-1.1,2.8-1.6c0.1,0.5-0.2,1.1-1.4,1c1.3,1.2,1.7-1.9,3-0.9c-0.3,0-0.4-0.1-0.6,0.2c0.7-0.5,2.3-0.1,2,0.4l-0.3,0
				c1.9,0.2,5.9,0,6.2-1.4c0,0.2-0.3,1.6-0.4,1.9l3.4-4.6c-0.3,1.2,0.9,4-0.7,4.6c0.5,0.2,1,0.4,2-0.1c-0.3-0.2-0.8-1.7-0.4-1.8
				c1.2,1.3,0.8,0.7,2.3,1.8c-0.5-0.3,0.1-2.1,0.8-2c-0.1,0.3,0.1,1.8-0.2,2l1.9-1.8c-0.5,0.3-0.1,1.5,0.3,2c-0.2-0.4,1.6,0,2.1-0.1
				l-0.8-0.4c2.1,0.3,2.1-2.5,4.1-2.4c-0.3,0.4-0.6,2.3,0.4,2.5c0.2-0.5,0.8-1.6,1.5-2.7c0.4-0.5,0.7-1.1,1.2-1.5
				c0.5-0.4,1-0.8,1.6-0.9l0.3,0.6c0.3-0.1,0.6-0.1,0.9-0.2l0.9-0.1c-0.3,0.3-0.8,0.6-1.3,1c-0.5,0.4-1,0.9-1.5,1.3
				c-0.5,0.5-0.9,1-1.3,1.4c-0.4,0.5-0.8,0.9-1.2,1.1c0.8,0.4,0.2,0.6,1.4,0.6c0.1,0.3,0.1,0.4-0.2,0.6c-0.3,0.1-0.6,0.2-0.8,0.2
				l0.7,0.1l0.3,0l0.2,0.1c0.3,0.1,0.6,0.1,0.8,0.2c0-0.5,0.4-0.8,0.8-0.9c0.4-0.1,0.8-0.3,0.9-0.7c-0.8,0.2-1.6,0.4-2.3,0.7
				c0-0.5,0.3-1.3,1-1.8c0.3-0.3,0.7-0.5,1.2-0.5c0.4-0.1,0.9-0.1,1.3,0.2c0.1,0.3-0.1,0.7-0.4,1.1c-0.3,0.4-0.6,0.8-0.6,1
				c0.1-0.1,0.5-0.2,0.9-0.2c0.3,0.1,0.7,0.2,0.7,0.3c-0.3,0.1-0.5,0.2-0.8,0.3c0.3,0.4,0.7,0.1,1.1,0.1c0.2,0,0.4,0,0.6,0.1
				c0.2,0.1,0.3,0.3,0.3,0.7c0.1,0.1,0.1,0.6,0.1,0.9c0,0.3,0,0.6,0.2,0.3c0.5-1.2,2.8-4.3,3.8-4.5c0,0,0.1,0.2,0.2,0.5
				c0.1,0.3,0.2,0.7,0.3,1c0.2,0.8,0.3,1.6,0.2,2c-0.2,0.6-0.8,0.6-1.4,0.8c-0.6,0.1-1.2,0.3-1.4,0.7c0.2-0.2,0.8-0.1,0.9,0
				c0,0.5-0.8,0.4-0.3,1c1.1-0.4,0.7,1.6,1-0.1c0.3,0.3,0.4,0.5,0.4,0.8c0,0.3,0,0.6,0.2,1c0.3-0.3,0.9-0.2,1.6,0
				c0.3,0.1,0.6,0.3,0.9,0.5c0.3,0.2,0.5,0.5,0.6,0.7c-0.3,0-0.6,0.3-0.8,0.4c0,1-0.1,1.8-0.2,2.6c-0.1,0.8-0.3,1.5-0.3,2.5
				c-0.3,0.2-0.6,1.1-1.1,0.7c0.2,0.3,0.6,0.5,0.6,1.1c-0.9,1.1-0.1-1.3-1.3-0.4c0.6,0.1,0.9,1.5,1.3,2.4c1-0.3,0.2-1.9-0.2-2.8
				c1.4,0,2.8,1.5,3.4,3.4c0.3,1.6-0.9,0.7-0.7,1c-0.2,3,2.4,2.5,1.4,5c-0.9,1-1.7,0-2.3,0.3c-0.3-1.3,0.5-2,0.5-2.9L81.4,35
				c-0.3-0.4-0.5-1.3-0.3-1.7c-0.8,0.8-0.1,5-0.9,7.3c0.3,0.4,0.6,1.1,0.9,0.8l-0.1-0.7c0.7-0.7,1,1.4,1.3,0.4
				c0.5,1,1.3,2.1,0.9,3.4l-1,0.3c0.3,0,0.6-0.9,0.3-1.3c0.4,0.6-1.3,2.1,0,2.7l0.7-1c0.5,1,1.5,2.2,1.2,3.4c1-0.6-0.1-0.3,1-1.1
				c-1.4,0.7,0.1-3.1-1.4-1.9c1.3-0.9,0.6-1.5,1.7-2.7c-0.3,0-0.6,0.4-0.5-0.6c-0.1,0-0.2-0.2-0.3-0.2c0,0,0,0,0-0.1c0,0,0,0,0,0.1
				c0,0-0.1,0,0,0c-0.1,0.2-0.3,0.4-0.5,0.5c-0.7-0.5-0.7-2.1-1.1-2.7c0.2-0.6,0.4,0.3,0.7-0.1L83.5,39c0.7-0.1,1.2-1.6,1.6-0.2
				l0-1.3c0.4-0.8,0.6-1.8,0.3-2.4c0.2-0.6-0.8-1.5-0.2-1l-0.4-2l0.2,0c0.1-2-1.2-4.1,0.1-6.4c-0.2-0.7-0.4-1.4-0.2-2.5l0.6-0.2
				c-0.1-0.3,0-1.3,0.1-2.1c0-0.8-0.1-1.5-0.4-1.7c0.4-0.4,0.4-1,0.4-1.6c-0.1-0.7-0.3-1.4-0.7-2.1c-0.7-1.4-1.8-2.7-2.3-3.6
				l-0.7,0.4c-0.8-1.1-1.9-2-3.5-2.7L78,10.2c-0.4-0.1-0.7-0.3-1-0.5c-0.4-0.2-0.7-0.6-1.1-0.9c-0.4-0.3-0.8-0.6-1.3-0.9
				c-0.5-0.3-1-0.5-1.5-0.7c0.2-0.2,0.8,0,1.1,0.3c-1-1.3-2.6-1.3-4-1.1c-0.4,0.1-0.7,0.1-1.1,0.2c-0.3,0.1-0.6,0.1-0.9,0.2
				c-0.5,0.1-1,0-1.5-0.3c-0.5,0.3-0.8,0.2-1.2,0c0,0,0.1,0,0.1,0c0,0-0.1,0-0.2,0c-0.2-0.1-0.4-0.3-0.7-0.4
				c0.2,0.2,0.4,0.3,0.6,0.4c-0.4,0-0.9,0.1-1.5,0.3l-0.2-0.8c0,0-0.1,0-0.1,0c-0.5-0.3-0.4,0.4-0.1,0.9C63,7,62.8,7.2,62.6,7.4
				c-0.4-1.2-1.4,0.4-2-0.9c-0.4,0.6-2.7,0.5-3,1.9c0-0.2-0.2-0.3,0.1-0.3c-0.6-0.2-1.2-0.3-1.8,0.1l-0.3-1l-1.3,1.3
				c-0.8-0.6-1.1-0.9-0.3-1.7c-1.9,1.2-1.6,0.4-3.2,1.6l0.1-0.6c-0.6,0-1.5,0.9-1.9,0.3c-1.3-1.2-6.5-0.2-9.9-1.3
				c0.7,1.9-1.6-0.8-1.7,0.6c-0.2-0.4-0.7-0.7-0.1-1.1c-1.7,0.4-2.6-0.7-3.8,0.5c-0.2-0.4,0.4-0.6,0.2-0.9C33.6,6,33.2,6.3,33,6
				c-0.2-0.3,0.3-0.4,0.5-0.6c-1.8,0.1-1.9,1.4-2.1,2.7c-0.9-0.6-1.3-0.5-2,0.3c-0.3-0.4-0.8-0.9,0.3-1c-0.6-0.1-3.7-0.6-3.8,0.4
				c-0.2-0.3-0.9-0.1-1,0c-1.4-0.1-1.5-0.2-2.8-0.1l0.4,0.2c-0.5,1.2-1.2,0.3-2.4,0.6l0-0.1c-1.5-0.3-1.8,0-2,0.2
				C17.7,8.8,17.5,8.9,16,9l0.4,0.6c0.2,0.8-0.4,0.8-1.3,0.9c-0.4,0-0.9,0.1-1.4,0.2c-0.4,0.2-0.8,0.4-1.1,0.8l0.7,0
				c-0.2,0.5-1,0.4-1.9,0.4c-0.9,0-1.9,0-2.4,0.3c-0.3,0.1,0-0.4,0.2-0.7c-0.7,0.3-0.9,0.6-1,0.8c-0.1,0.2,0,0.3,0.2,0.4
				c0.3,0.2,0.8,0.5,0.4,1.3c-0.6,0-0.9-1.2-1.7,0c-0.4,0.2-0.5,1.3-0.6,2.5c-0.1,1.2-0.1,2.4-0.8,3.2C6.4,19.3,6.8,19.1,7,20
				c0,0.3-0.2,0.7-0.3,1.1c-0.1,0.4-0.3,0.8-0.5,1.3c-0.3,0.8-0.4,1.4,0.3,2c-0.1,0.1-0.2,0.2-0.3,0.2c0.3,0.8,0.6,2.7,1.3,3.2
				c-2.7,0.8,1.3,5.2-1.2,5.2l0.1,2.6l-0.2-0.1c-0.2,1.6,0.4,2.2,1,2.8c-0.2,0.4-0.4,0.1-0.5,0.1c-0.5,2.4-0.4,2.6,0.8,4.6l-0.8,0.2
				c0.5,0.5-1.2,3.5-0.3,5.8c-0.1,0-0.2-0.1-0.4-0.3C7,51.3,3.8,55,6.7,56l0.7,1.7c0.2-2.3,1.3,0.3,1.7-0.6c0.2,0.9-0.9,2.3-1,1.2
				l0.1-0.2c-1.5-0.4-0.5,2.8-1.6,2.7c0,2.2-0.2,4.4-0.4,6.6c-0.1,0.5-0.1,1.1-0.2,1.6c0,0.6-0.1,1.3,0,2c0.1,0.7,0.1,1.3,0.3,2
				c0.1,0.3,0.1,0.7,0.2,1L7,74.9c0.3-0.3,0.6-0.7,0.9-1c0.2,0.5,0.3,1.1,0.6,1.6c0,0.5-0.5,1-1.1-0.2c-0.2,0.4,0.2,0.9,0.6,1.2
				c0.5,0.3,1,0.4,1.1,0.3c0.2,0.6,0.2,0.9,0.1,1C9.2,78,9,78,8.7,77.8c-0.5-0.2-1.1-0.7-0.9-0.4c0.2,0.3,0.4,0.6,0.7,0.9
				c0-0.1,0-0.2,0-0.3c0.4,0.2,0.8,0.3,1.1,0.4c0.3,0.1,0.7,0.4,1.1,1c0.5,0.9-0.2,0.9,0.1,1.2c-0.1,0.1,0,0.2,0.4,0.4
				c0.5,0.6,1.2,1,1.8,1.5c-0.1-0.4-0.2-0.9-0.2-1.3c0.3,0.1,0.5,0.2,0.7,0.3c0.2,0.1,0.4,0.2,0.5,0.2c0.3,0.1,0.3,0,0.2-0.7
				c0.1,1.1,1.9,2.2,3.8,2.7c0.2,0.1,0.5,0.1,0.7,0.2c0.2,0,0.5,0.1,0.7,0.1c0.5,0.1,0.9,0.1,1.3,0.1c0.4,0,0.7,0,1,0.1
				c0.2,0,0.4,0.1,0.5,0.1c1.1-0.7,2.3-0.7,3.6-0.6c-0.3-0.2-0.6-1.2,0.6-1.1c-0.4,2.1,2.2,0.9,3.2,2.5c-0.9-1,3.4-0.3,2-1.7
				c1,0.2,0.1,0.8,0.8,1.3c2.4-0.8,5.2,0.5,8.2,0.3c0-0.3-0.4-0.7,0.2-1.1l1.5,1.4c0.6-0.1,0.5-1.6,1.6-0.6c-0.1-0.2-0.4-0.6,0-0.7
				c5.8,1.4,11.8-1.1,17.6,1.5c-0.8-0.5-0.3-0.6,0.3-0.6c-0.4-0.1,0-0.7-0.1-1.1l2.4,1.1c0.4-1.1,2.6-0.1,2.9-1.1l-0.8,0.2
				c1-1.2-1.4-2.7-1.3-4.2c-1.2,1.4-3-2-4.9-0.1c-0.4-0.3,0.4-0.5,0.1-0.9c-0.5,0.7-1.1,0.8-2.1,0.5l0.1-0.2c-3,0.2-4.3-0.5-7.7-0.9
				l0.3,0.8c-0.7-0.1-0.9-0.3-1.2-0.5c-0.8,1.2,2,0.1,1.3,1.3c-1-1.5-5.1,0-5.8-1.8c-1.1,0,0.3,0.9-0.8,0.9l-0.3-0.5l-0.3,0.6
				c-0.7-0.1-1.1-0.7-1.1-1.1c0.2,0,0.5-0.1,0.7-0.1c-1-0.6-2.7,0.2-3,0l1.1,0.3c-3.1,0.4-6.8-0.2-9.7,0.8l0.2,0.4
				c-2.3,0.7-1.8-0.4-4.3-0.1l0.1-0.1c-0.5,0.4-1.2,0.5-1.8,0.5c0.6-0.4-1.2-0.8-0.4-1.3c-2.4,0.7-1.2,0.6-2.8,1.9l-0.4-0.6
				c-0.6,0.5-0.6,0.8-1.7,0.9c0.5-0.2,0.3-0.5,0.2-0.7c-0.1-0.3-0.2-0.5,0.2-0.8c-0.5-0.3-0.9-0.5-1.2-0.5c-0.4-0.1-0.7,0-1.1,0
				c-0.3,0-0.6,0-0.8-0.1c-0.2-0.2-0.3-0.4-0.3-0.9c-0.8,0.5-0.5,0.9-0.1,1.2c0.4,0.3,1,0.4,0.7,0.4c0.1,0.3-0.2,0.6-0.6,0.6
				c-0.4,0.1-1-0.1-1.3-0.3c-0.3-0.2-0.3-0.8-0.4-1.5c-0.1-0.7-0.1-1.4-0.7-1.9c0.1,0.1,0.2,0,0.3,0.1c0-0.2-0.1-0.3-0.3-0.4
				c-0.1-0.1-0.3-0.2-0.4-0.2c-0.1-0.1-0.3-0.2-0.4-0.3c-0.1-0.1-0.1-0.3-0.1-0.6c-0.5,0.1-0.7-0.1-0.8-0.2c-0.1-0.2-0.3-0.3-0.8,0
				l0.5,0.6l0.6,0.5c-0.4-0.2-1-0.3-1.6-0.6c-0.3-0.1-0.5-0.3-0.7-0.6c-0.2-0.3-0.3-0.6-0.3-1.1c0.3,0,0.8,0.3,1.1,0.5
				c0.1-0.5-0.6-0.7-0.4-1.2c0.6-0.1,0.8,0.3,1.1,0.7c0.2,0.5,0.6,1,1.2,1.1c0.1-0.3-0.3-0.5-0.5-0.7c-0.2-0.2-0.3-0.4,0.4-0.5
				c-0.9,0.1-1.1-0.3-1.1-0.7c-0.1-0.4,0-0.9-0.8-1.3l0.8-0.1c-0.1-0.1-0.5-0.4-0.6-0.7c0.4,0.1,0.7,0.3,1.1,0.4
				c-0.2-0.2-0.3-0.3-0.3-0.5c0-0.2,0.1-0.4,0.2-0.6l0.2-0.3c0-0.1,0.1-0.3,0.1-0.4c0.1-0.3,0.1-0.5,0-0.8c0,0.6,0,0.9-0.1,1.1
				c-0.1,0.2-0.2,0.1-0.4,0.1c-0.3,0-0.7-0.2-0.9,0.2c-0.1-0.2-0.2-0.6-0.2-0.8c0-0.2,0-0.4,0.1-0.6c0.1-0.3,0.4-0.5,0.7-0.8
				c0.6-0.4,1.2-0.9,1.1-2.5c0.1,0.4-0.5,1.6-0.8,0.9c0.2-0.6,0.4-1.4,0.8-1.8c-0.2-2.1-0.8,0.3-1.2-0.6c0.9-0.7-0.4-1-0.7-2l0.8,0
				c0.5-2.4-1.6-0.6-1-2.8l1.1,0.9l-0.3-1.1l0.9,0.2c-0.7-1.2-0.5-1.6-0.2-2.8c-0.5,0.3-1.4-0.2-1.4-1.2c0.5-0.7,0.7,0.4,0.6-1.1
				c0.5,0.3,1.1,0.7,0.4,1.4c0.3,0.1,0.5,0.3,0.7,0.4c0.5-0.8,0.1-2,0.1-2.5c0,0.2-0.1,0.5-0.2,0.6l-1.1-2.2
				c0.3-0.3,0.5-0.1,0.8,0.2c-0.1-0.4-0.4-0.7-0.5-1.4c0.6,0.2,1.3,0.1,1.6,1l-0.7-2.1c0.3-0.1,0.8-1.1,1-0.8
				c0.4-1.2-1.2-2.8-0.7-4.3c-0.1-0.1-0.2-0.2-0.3-0.6c0.1-1.4,0.9-2.7,0.1-4.4l1.1-1c-0.3-1.3-1.4,1.3-1.8-0.9
				c-0.4-1.6,1-0.6,1.3-1.1c-0.6-0.8-1.7-2.1-0.8-3.6C13.4,32.7,13.3,33.1,13.3,33.5z M13.7,18.8c0,0.3,0.4,0.9-0.1,0.9
				C12.8,19.1,13.3,19,13.7,18.8z M32.6,11.7c-0.2,0.3-0.6,0.1-1-0.2C31.9,11.5,32.2,11.5,32.6,11.7z M84.7,36.6
				C84.7,36.5,84.7,36.5,84.7,36.6C84.9,35.8,84.8,36.1,84.7,36.6z M84.3,38c0.1,0.1,0.2,0.1,0.3,0.1c-0.2-0.1-0.2-0.4-0.2-0.8
				C84.3,37.4,84.2,37.6,84.3,38z M11.2,80.5L11,80.1C11.8,80.5,11.5,80.5,11.2,80.5z"/>
			<path class="st2" d="M29.8,12.7c-0.1-0.1-0.1-0.3-0.1-0.4C29.5,12.5,29.5,12.6,29.8,12.7z"/>
			<path class="st2" d="M13.7,43.7C13.7,43.7,13.7,43.7,13.7,43.7c0,0.1,0.1,0.1,0.1,0.1L13.7,43.7z"/>
			<path class="st2" d="M76.2,17.4c0-0.2,0-0.4,0.1-0.6C76.1,16.9,76.1,17.1,76.2,17.4z"/>
			<path class="st2" d="M85.7,45.8l-0.2-0.9c0,0.5-0.1,0.6-0.3,0.8C85.4,45.7,85.6,45.5,85.7,45.8z"/>
			<path class="st2" d="M80.9,54c0.1,0.1,0,0.3,0.1,0.4l0.4,0C81.3,53.8,81,53.4,80.9,54z"/>
			<path class="st2" d="M83.1,46.7c-0.7,0.1-0.4,0.7-0.3,1.3c0,0,0-0.1,0-0.1C83.7,48.1,83.4,47.4,83.1,46.7z"/>
			<path class="st2" d="M82.8,48.2c0,0.2,0,0.4,0,0.6C83.2,48.9,82.9,48.5,82.8,48.2z"/>
			<path class="st2" d="M84.8,39.9c-0.2,0.3,0.8,0.2,0.6,0.4C86.2,40.6,84.3,38.2,84.8,39.9z"/>
			<polygon class="st2" points="80.9,47.2 81.7,47 81.1,46.6 			"/>
			<path class="st2" d="M81.5,42l-0.2,1.1c0.1,0,0.2,0.1,0.3,0.3C81.6,42.7,81.8,42,81.5,42z"/>
			<path class="st2" d="M81.6,43.4c0,0.3,0,0.7,0.1,0.8C81.7,44,81.7,43.6,81.6,43.4z"/>
			<polygon class="st2" points="80.7,45.8 80.9,45.5 80.9,44.7 			"/>
			<path class="st2" d="M81.7,30.7l-0.2-1.2c-0.3-0.1-0.4,0.2-0.3,0.6C81.3,30.4,81.4,30.8,81.7,30.7z"/>
			<path class="st2" d="M79.5,34.2c0.2-0.3,0.3-0.3,0.6-0.5l-1,0L79.5,34.2z"/>
			<path class="st2" d="M79.3,30.8c-0.3-0.1-0.8-1.7-0.7-0.2C78.8,30.7,79,31.9,79.3,30.8z"/>
			<path class="st2" d="M77.4,14.5l0.2,0.2l1.2-1.1C78.4,13.9,77.9,14.2,77.4,14.5z"/>
			<path class="st2" d="M63.7,14.4c1.4,0.4,0.3-1,1.6-0.5c0.3-0.4-1-0.4-0.7-0.7C63.7,13.5,63.3,13.3,63.7,14.4z"/>
			<path class="st2" d="M64.5,13.1c0.1-0.1,0.3-0.1,0.4-0.2C64.7,13,64.6,13.1,64.5,13.1z"/>
			<polygon class="st2" points="66,85.6 66.9,85.9 66.3,85.4 			"/>
			<path class="st2" d="M67.7,84.4l0.2,1l0.5-0.9C68.2,84.5,67.9,84.6,67.7,84.4z"/>
			<path class="st2" d="M16.3,18.5l-0.2-0.2c-0.3-0.1-0.4,0-0.5,0.2C15.8,18.5,16,18.5,16.3,18.5z"/>
			<polygon class="st2" points="14.2,26.6 14.2,26.4 13.2,26.7 			"/>
			<path class="st2" d="M15.4,36.6c0-0.4-0.2-0.9-0.1-1.3C15.4,36.2,14.2,36.7,15.4,36.6z"/>
		</g>
	</g>
</g>
<g id="Capa_3">
	<g>
		<g>
			<path class="st2" d="M53.2,48.2c-0.7-0.4-1.7-0.9-2.6-0.6c-0.7,0.3-1.1,1.3-1.5,1.9c-0.2,0.3-0.5,0.3-0.8,0.2
				c-2.5-1-4.4-2.7-5.8-5c-0.2-0.4-0.2-0.6,0.1-1c0.4-0.5,0.9-1.1,1.1-1.7c0.1-0.7-0.2-1.4-0.5-2c-0.4-0.8-0.7-1.8-1.5-2.3
				c-0.7-0.4-1.6-0.2-2.2,0.3c-1.1,0.9-1.6,2.2-1.6,3.6c0,0.4,0.1,0.8,0.1,1.1c0.2,0.9,0.6,1.7,1.1,2.5c0.4,0.6,0.7,1.2,1.1,1.7
				c1.3,1.8,3,3.4,5,4.6c1,0.6,2,1.1,3.1,1.5c1.2,0.4,2.3,0.8,3.6,0.6c1.4-0.3,2.7-1.1,3.3-2.4c0.2-0.4,0.2-0.8,0.2-1.2
				C55,49.1,53.9,48.6,53.2,48.2z"/>
			<path class="st2" d="M46.5,27.7c-9.9,0-18,8.1-18,18c0,3,0.8,6,2.3,8.7l-2.6,9.8l9.8-2.6c2.6,1.4,5.6,2.2,8.6,2.2
				c9.9,0,18-8.1,18-18S56.4,27.7,46.5,27.7z M46.5,60.3c-2.6,0-5.2-0.7-7.5-2.1l-0.6-0.4l-5.5,1.5l1.5-5.4L34,53.3
				c-1.4-2.3-2.1-4.9-2.1-7.6c0-8.1,6.6-14.6,14.6-14.6c8.1,0,14.6,6.6,14.6,14.6C61.1,53.8,54.5,60.3,46.5,60.3z"/>
		</g>
		<g>
			<path class="st2" d="M69,86c-0.5,0-0.3,0.6-0.4,0.8C69.4,86.6,68.9,85.8,69,86z"/>
			<path class="st2" d="M76.2,82.3l0,0.3c0.2-0.4,0.4-0.8,0.6-1.2C76.7,81.8,76.5,82,76.2,82.3z"/>
			<path class="st2" d="M81.3,77.3c-0.3,0-0.6,0.1-0.8,0.4c-0.2,0.2-0.4,0.5-0.5,0.8c-0.1,0.3-0.3,0.7-0.5,1
				c-0.2,0.3-0.4,0.6-0.8,0.7l-0.3-0.1c0.1,0.4,0.1,0.7,0.2,1.1c0.3-0.3,0.6-0.6,0.8-1c0.2-0.4,0.5-0.7,0.7-1.1
				C80.5,78.3,80.9,77.7,81.3,77.3z"/>
			<path class="st2" d="M85.3,74.5C85,74.6,85,74.3,85,74.3c0,0,0.1,0.2-0.2,1.2c0.1-0.1,0.1-0.1,0.2-0.1
				C85,75.1,85.1,74.9,85.3,74.5z"/>
			<path class="st2" d="M85,75.3C84.7,76.1,85.5,74.9,85,75.3L85,75.3z"/>
			<path class="st2" d="M85.6,71.3c0.1,0.4,0.2,0.8,0.2,1.2c0.3-0.2,0.5-1.3,0.6-0.8C86.4,70.4,86.1,70.7,85.6,71.3z"/>
			<path class="st2" d="M84.8,70.2l0.1,0.6C85.1,70.7,85.1,70.5,84.8,70.2z"/>
			<path class="st2" d="M85.2,72c-0.1-0.4-0.1-0.8-0.2-1.3c-0.2,0.1-0.6,0.1,0.1,0.6C84.7,71.2,85,71.4,85.2,72z"/>
			<path class="st2" d="M84.9,72.7c-0.4,0.6-0.7,1.3-0.8,0.1c-0.2,1-0.1,1.5,0.2,1.5C84.4,74.3,84.8,73.7,84.9,72.7z"/>
			<path class="st2" d="M80.5,76.4l-0.6,0.4c0,0.2,0,0.5,0,0.7C79.9,77.2,80.8,76.5,80.5,76.4z"/>
			<path class="st2" d="M86.3,65.6c-0.2-0.1-0.7,0.3-1,0.3l0.3,0.6C85.8,66.2,85.9,65.6,86.3,65.6z"/>
			<path class="st2" d="M85.3,65.9L84.9,65C84.9,65.8,85.1,66,85.3,65.9z"/>
			<path class="st2" d="M83.6,69.9c0.3,0.6,0.5,1.3,0.7,1.9c-0.2-0.8-0.5-1.6-0.7-2.3L83.6,69.9z"/>
			<polygon class="st2" points="86.3,62 86.9,62.6 86,61.6 			"/>
			<path class="st2" d="M86.2,59.7c0.5,0.4,0.8-0.5,1.1-0.1c-0.1-0.6-0.5-1.2-0.8-1.7C86.7,58.4,86.6,59,86.2,59.7z"/>
			<path class="st2" d="M85.9,57c0.1,0.3,0.3,0.5,0.5,0.8C86.3,57.6,86.2,57.3,85.9,57z"/>
			<path class="st2" d="M85,63.4c0.1-0.1,0.5-0.2,0.7-0.7L85,63C85,63.2,85,63.3,85,63.4z"/>
			<path class="st2" d="M85,63.1L85,63.1c0-0.4,0.1-0.7,0.1-0.8C85.1,62.4,85.1,62.6,85,63.1z"/>
			<path class="st2" d="M85,63.5C85,63.5,85,63.4,85,63.5C85,63.4,84.9,63.5,85,63.5z"/>
			<path class="st2" d="M84.2,67.4c-0.4-0.5-0.8-1.7-1.4-0.6C83.3,67.2,83.6,66.6,84.2,67.4z"/>
			<path class="st2" d="M84.2,64l-0.2,1c0.2,0,0.4-0.2,0.6,0.1L84.2,64z"/>
			<polygon class="st2" points="83.9,63.5 84.2,64 84.2,63.6 			"/>
			<path class="st2" d="M85.3,58.7c-0.3-0.4-0.3-0.9-0.4-1.4c-0.1,0.6-0.2,1.1-0.2,1.7C84.9,59.1,85.3,59.3,85.3,58.7z"/>
			<path class="st2" d="M85.1,60.8C85.1,60.8,85.1,60.8,85.1,60.8C85,60.8,85,60.8,85.1,60.8z"/>
			<path class="st2" d="M84.9,52.1l-0.1,0.1c0,0,0.1,0,0.1,0L84.9,52.1z"/>
			<path class="st2" d="M84.6,59.1c-0.1,0.4,0,0.7,0.2,0.9c-0.1-0.3-0.1-0.7-0.1-1C84.6,59,84.5,59,84.6,59.1z"/>
			<path class="st2" d="M85.6,55.6c-0.1,0.2-0.3,0.5-0.4,0.7C85.4,56.1,85.8,55.7,85.6,55.6z"/>
			<path class="st2" d="M85.2,60.6C85.3,60.6,85.3,60.6,85.2,60.6C85.4,60.5,85.4,60.5,85.2,60.6z"/>
			<path class="st2" d="M85.2,60.6c-0.1-0.2-0.3-0.4-0.4-0.6c0.1,0.3,0.1,0.5,0.2,0.7C85.1,60.7,85.2,60.6,85.2,60.6z"/>
			<path class="st2" d="M80.5,50.6c0.6,0.1,1.2,1.2,0.5,2.2c0.5,0.9,2.6,0.3,3.7-0.5c-0.3,0-0.5,0-0.9-1c-0.3,0.3-0.8,2.2-1.4,1.3
				c-0.3-1.3,0.2-1.1,0.6-1.7c-0.8,0.5-1.2-1.6-2.3-1.4l0.4,1.1C81,50.7,80.7,50.2,80.5,50.6z"/>
			<path class="st2" d="M84.7,54.1l0.1,0.4c0.1-0.5,0.4-0.8,0.9-1.4c-0.3-0.7-0.5-0.8-0.8-0.9l-0.1,2L84.7,54.1z"/>
			<path class="st2" d="M84.8,56.3c-0.7-0.3-1-1.3-1.7-0.7c0,1.2,0.6,0.8,0.9,1.5C83.8,55.2,84.3,57.7,84.8,56.3
				c0,0.4,0.1,0.7,0.1,1c0.1-0.3,0.2-0.7,0.3-1c0,0,0,0,0,0l0,0l0,0c-0.1,0.1-0.1,0.1-0.1,0c0,0,0,0,0,0
				C85,56.4,84.9,56.3,84.8,56.3c0.1-0.6,0.2-0.1,0.3,0.1c0,0,0.1,0,0.1,0c0,0,0,0,0,0l-0.4-1.9C84.7,54.9,84.7,55.4,84.8,56.3z"/>
			<path class="st2" d="M81.3,65.8c0.1-0.1,0.1-0.1,0.2-0.1C81.4,65.7,81.3,65.6,81.3,65.8z"/>
			<path class="st2" d="M81.7,65.1c0.1,0.1,0.4,0.3,0.3,0.7c-0.2,0.4-0.3,0-0.6,0c0.2,0.3,0.5,0.9,0.8,0.1l-0.1-0.1
				c0.2-0.8,1.1-1.8,1.2-1.6C82.8,64.3,82.4,64.5,81.7,65.1z"/>
			<path class="st2" d="M83.1,60.6L82.8,59l-0.6,0.8l0.4,0C82.4,60.7,82.8,60.5,83.1,60.6z"/>
			<polygon class="st2" points="85.3,51.9 86,52.2 85,51.2 			"/>
			<polygon class="st2" points="85.2,49.9 85.8,50 85.4,49.4 			"/>
			<path class="st2" d="M13,25.7l0.2,0.5C13.1,25.9,13.1,25.8,13,25.7z"/>
			<path class="st2" d="M13.1,22.4l-0.3-0.1C12.9,22.5,13,22.5,13.1,22.4z"/>
			<path class="st2" d="M64.8,6.2c-0.7-0.6-1.4-1.5-1.4-0.8l0.2,0.7C64.1,5.9,64.5,6,64.8,6.2z"/>
			<path class="st2" d="M30.1,10.3c0.1,0.1,0.1,0.1,0.2,0.2c0.2-0.2,0.3-0.5,0.5-0.7C30.6,10,30.3,10.2,30.1,10.3z"/>
			<path class="st2" d="M29.6,13.2l-0.9-0.5C28.9,12.9,29.2,13.1,29.6,13.2z"/>
			<path class="st2" d="M13.7,44.1l0.7,0.5C14.4,43.8,14.1,44.2,13.7,44.1z"/>
			<path class="st2" d="M84.9,28.8c0.3-0.6,0.4-1.1,0.4-1.5C84.9,28,84.3,28.6,84.9,28.8z"/>
			<path class="st2" d="M5.6,24.3c0.1,0.3,0.3,0.4,0.4,0.4C5.9,24.4,5.8,24.3,5.6,24.3z"/>
			<path class="st2" d="M85.3,25.6c-0.1,0.1-0.1,0.2-0.2,0.3c0.1,0.4,0.2,0.9,0.2,1.4C85.6,26.8,85.8,26.2,85.3,25.6z"/>
			<path class="st2" d="M43.4,78.1c0,0,0.1,0,0.2,0.1C43.6,78.1,43.5,78.1,43.4,78.1z"/>
			<path class="st2" d="M62.9,85.2c-0.2,0-0.5,0-0.8,0.1C62.2,85.3,62.5,85.3,62.9,85.2z"/>
			<path class="st2" d="M85.5,41.6C85.5,42,85.6,41.7,85.5,41.6L85.5,41.6z"/>
			<path class="st2" d="M82.7,43.7c-0.1-0.1-0.2-0.2-0.3-0.2C82.5,43.6,82.7,43.6,82.7,43.7z"/>
			<path class="st2" d="M80.9,21.3C80.9,21.3,80.9,21.3,80.9,21.3C80.8,21.4,80.8,21.4,80.9,21.3z"/>
			<path class="st2" d="M85.2,42.2c0.1-0.2,0.2-0.4,0.2-0.6C85.3,41.8,85.2,42,85.2,42.2z"/>
			<path class="st2" d="M85.5,42.2c0,0.2,0,0.3-0.1,0.4C85.5,42.6,85.6,42.5,85.5,42.2z"/>
			<path class="st2" d="M85.4,41c0,0.2,0,0.5-0.1,0.7c0-0.1,0.1-0.1,0.1-0.1C85.5,41.5,85.5,41.3,85.4,41z"/>
			<path class="st2" d="M12.3,74C12.3,74.1,12.3,74.1,12.3,74C12.7,74.3,12.6,74.2,12.3,74z"/>
			<path class="st2" d="M53.4,13.4C53.4,13.4,53.4,13.4,53.4,13.4C53.4,13.4,53.4,13.4,53.4,13.4L53.4,13.4z"/>
			<path class="st2" d="M51.8,13.9c0.7-0.9,1-0.8,1.6-0.6l-0.5-2L51.8,13.9z"/>
			<path class="st2" d="M13.2,33.7l0.6-1.1c1,1.3,0.7,2.3,1.6,1.3c-2.2-0.2-0.2-4.3-2.4-4.4l0.5-0.7c0,0.2,0.1,0.2,0.1,0.4
				c1-1.4-1.6-1.1-1.3-2.9c0.2-0.6,0.5-1.1,0.7-0.6l-0.5-1.4c0-0.4,0.4-0.3,0.4,0.1l-0.1-1.1l0-0.5l0-0.4l0.1,0
				c-0.3-0.2-0.8-0.8-1-1.1c0.4-0.4,0.2,0.2,0.5,0.2c-0.1-0.3-0.3-0.7-0.4-1c0.3-0.1,0.6,0,0.7,0.3c0.1,0.3,0.2,0.6,0.1,0.9
				c1.2-0.2,1-0.4,0.8-0.7c-0.1-0.2-0.2-0.4-0.2-0.6c0-0.2,0.2-0.5,0.6-0.8l0,0.8c0.7,0,0.9-0.2,1.2-0.4c0.3-0.2,0.4-0.4,1-0.5
				c-0.1,0-0.3,0-0.6,0c-0.3,0-0.6,0-0.8,0.1c-0.6,0-1.1,0-1.2-0.5c0.3-0.2,0.5-0.4,0.4-1.1c0.3,0.2,0.5,0.2,0.7,0
				c0.2-0.1,0.3-0.4,0.4-0.6l0.8,0.7c0.1-0.6-0.3-0.9-0.3-1.5c0.6-0.4,1.2,0.1,1.8,0.5c0.4-0.2,0.1-0.4-0.2-0.6
				c-0.3-0.2-0.7-0.4-0.2-0.9c1-0.2,1.3-0.8,2.3-1.8c0.8,0.2,0,0.6,0.4,0.9c0.1-0.3,0.2-0.6,0.4-0.9c0.2,0,0.2,0.3,0.2,0.4
				c0.5-0.4-0.2-1,0.7-1.4c0-0.3,0.2-0.3,0.4-0.3c0.1,0,0.2,0.1,0.4,0.2c0.1,0.1,0.3,0.2,0.5,0.3c0.7,0.4,1.6,0.8,2.3,0.1
				c0.3,0.3-0.2,0.6-0.1,1c1.9-0.8,1.6-0.6,3.2-1.8l1.3,0.7c-1-0.8,0.3-1.7,1.4-2.4c-0.3-0.4-0.6-0.7-0.8-0.9L31,8.9
				c0.2,0.2,0,0.5-0.3,1c0.1-0.1,0.2-0.2,0.3-0.2c0.6,0.4,0.3,1-0.1,1.6c-0.2-0.2-0.4-0.4-0.6-0.6c-0.4,0.6-0.8,1.3-0.7,1.9
				c0.1-0.1,0.3-0.2,0.6-0.3c-0.1,0.2-0.2,0.3-0.1,0.4c0.1,0.1,0.2-0.1,0.5-0.4l0.4,1.1l0.1-0.5l2.3,0.7c1.6-1.2,3.1-2.9,5.7-3.3
				c-0.6,0.8-0.1,1.4-0.2,2.4c-0.7-1.1-2,0.4-3.4,0.2c0.7,0.1,0.6,0.6,0.4,0.8l2.4-1c-0.1,0.8,0.5,0.6,1.1,0.9
				c-0.5-1.6,1.8-1.1,2.8-1.6c0.1,0.5-0.2,1.1-1.4,1c1.3,1.2,1.7-1.9,3-0.9c-0.3,0-0.5-0.1-0.6,0.2c0.7-0.5,2.4-0.1,2,0.4l-0.3,0
				c1.9,0.2,5.9,0,6.2-1.4c0,0.2-0.3,1.7-0.4,1.9l3.5-4.6c-0.3,1.2,0.9,4-0.7,4.6c0.5,0.2,1,0.4,2-0.1c-0.3-0.2-0.8-1.7-0.4-1.8
				c1.2,1.3,0.8,0.7,2.3,1.8c-0.5-0.3,0.1-2.1,0.8-2c-0.1,0.3,0.1,1.8-0.2,2l1.9-1.8c-0.5,0.3-0.1,1.5,0.3,2c-0.2-0.4,1.6,0,2.1-0.1
				L61.5,13c2.1,0.3,2.1-2.5,4.2-2.5c-0.3,0.4-0.6,2.3,0.4,2.5c0.2-0.5,0.8-1.6,1.5-2.7c0.4-0.5,0.7-1.1,1.2-1.5
				c0.5-0.4,1-0.8,1.6-0.9l0.3,0.6c0.3-0.1,0.6-0.1,0.9-0.2l0.9-0.1c-0.3,0.3-0.8,0.6-1.3,1c-0.5,0.4-1,0.9-1.5,1.4
				c-0.5,0.5-0.9,1-1.3,1.4c-0.4,0.5-0.8,0.9-1.2,1.1c0.8,0.4,0.2,0.6,1.4,0.6c0.1,0.3,0.1,0.4-0.2,0.6c-0.3,0.1-0.6,0.2-0.8,0.2
				l0.7,0.1l0.3,0l0.2,0.1c0.3,0.1,0.6,0.1,0.8,0.2c0-0.5,0.4-0.8,0.8-0.9c0.4-0.1,0.9-0.3,1-0.7c-0.9,0.2-1.6,0.4-2.3,0.7
				c0-0.5,0.3-1.3,1-1.8c0.3-0.3,0.7-0.5,1.2-0.5c0.4-0.1,0.9-0.1,1.3,0.2c0.1,0.3-0.1,0.7-0.4,1.1c-0.3,0.4-0.6,0.8-0.6,1
				c0.1-0.1,0.5-0.2,0.9-0.2c0.4,0.1,0.7,0.2,0.7,0.3c-0.3,0.1-0.6,0.2-0.8,0.3c0.3,0.4,0.7,0.1,1.1,0.1c0.2,0,0.5,0,0.6,0.1
				c0.2,0.1,0.3,0.3,0.4,0.7c0.1,0.1,0.1,0.6,0.1,0.9c0,0.3,0,0.6,0.2,0.3c0.5-1.2,2.8-4.3,3.9-4.6c0,0,0.1,0.2,0.2,0.5
				c0.1,0.3,0.2,0.7,0.3,1c0.2,0.8,0.3,1.6,0.2,2c-0.2,0.6-0.8,0.6-1.4,0.8c-0.6,0.1-1.2,0.3-1.4,0.7c0.2-0.2,0.8-0.1,0.9,0
				c0,0.5-0.8,0.4-0.3,1c1.1-0.4,0.7,1.6,1-0.1c0.3,0.3,0.4,0.5,0.4,0.8c0,0.3,0,0.6,0.2,1c0.3-0.3,0.9-0.2,1.6,0
				c0.3,0.1,0.6,0.3,0.9,0.5c0.3,0.2,0.5,0.5,0.6,0.7c-0.3,0-0.6,0.3-0.8,0.4c0,1-0.1,1.8-0.2,2.6c-0.1,0.8-0.3,1.5-0.3,2.5
				c-0.3,0.2-0.6,1.1-1.1,0.7c0.2,0.3,0.6,0.5,0.6,1.1c-0.9,1.1-0.1-1.3-1.3-0.4c0.6,0.1,0.9,1.5,1.3,2.4c1-0.3,0.2-1.9-0.2-2.8
				c1.4,0,2.8,1.5,3.4,3.5c0.3,1.6-0.9,0.7-0.7,1c-0.2,3,2.4,2.5,1.4,5c-0.9,1-1.7,0-2.3,0.3c-0.3-1.3,0.5-2,0.5-2.9l-0.4,1.1
				c-0.3-0.4-0.5-1.3-0.3-1.7c-0.8,0.8-0.1,5-0.9,7.3c0.3,0.4,0.6,1.1,0.9,0.8l-0.1-0.7c0.7-0.7,1,1.4,1.3,0.4
				c0.5,1,1.3,2.1,0.9,3.4l-1,0.3c0.3,0,0.6-0.9,0.3-1.3c0.4,0.6-1.3,2.1,0,2.7l0.7-1c0.5,1,1.5,2.2,1.2,3.4c1-0.6-0.1-0.3,1-1.1
				c-1.4,0.8,0.1-3.1-1.4-1.9c1.3-0.9,0.6-1.5,1.7-2.7c-0.3,0-0.6,0.4-0.5-0.6c-0.1,0-0.2-0.2-0.3-0.2c0,0,0,0,0-0.1c0,0,0,0,0,0.1
				c0,0-0.1,0,0,0c-0.1,0.2-0.3,0.4-0.5,0.5c-0.7-0.5-0.7-2.1-1.1-2.7c0.2-0.6,0.4,0.3,0.7-0.1l-0.6-0.8c0.7-0.1,1.2-1.6,1.6-0.2
				l0-1.3c0.4-0.8,0.6-1.8,0.3-2.4c0.2-0.6-0.8-1.5-0.2-1l-0.4-2l0.2,0c0.1-2-1.2-4.1,0.1-6.4c-0.2-0.7-0.4-1.4-0.2-2.5l0.6-0.2
				c-0.1-0.3,0-1.3,0.1-2.1c0-0.8-0.1-1.5-0.4-1.7c0.4-0.4,0.4-1,0.4-1.6c-0.1-0.7-0.3-1.4-0.7-2.1c-0.7-1.4-1.8-2.7-2.4-3.6
				l-0.7,0.4c-0.8-1.1-1.9-2-3.5-2.7l-0.4,0.6c-0.4-0.1-0.7-0.3-1-0.5c-0.4-0.2-0.7-0.6-1.1-0.9c-0.4-0.3-0.8-0.6-1.3-0.9
				c-0.5-0.3-1-0.5-1.5-0.7c0.2-0.2,0.8,0,1.1,0.3c-1-1.3-2.6-1.3-4-1.1c-0.4,0.1-0.7,0.1-1.1,0.2c-0.3,0.1-0.6,0.1-0.9,0.2
				c-0.5,0.1-1,0-1.5-0.3c-0.5,0.3-0.8,0.2-1.2,0c0,0,0.1,0,0.1,0c0,0-0.1,0-0.2,0c-0.2-0.1-0.4-0.3-0.7-0.4
				c0.2,0.2,0.4,0.3,0.6,0.4c-0.4,0-0.9,0.1-1.5,0.3l-0.2-0.8c0,0-0.1,0-0.1,0c-0.5-0.3-0.4,0.4-0.1,1c-0.3,0.1-0.5,0.3-0.7,0.5
				c-0.4-1.3-1.4,0.4-2-0.9c-0.4,0.7-2.7,0.5-3,1.9c0-0.2-0.2-0.3,0.1-0.3c-0.6-0.2-1.2-0.3-1.8,0.1l-0.3-1l-1.3,1.3
				C53.5,8,53.2,7.6,54,6.9c-1.9,1.2-1.6,0.4-3.2,1.6l0.1-0.6c-0.6,0-1.5,0.9-1.9,0.4C47.7,7,42.5,8,39.1,6.9
				c0.7,1.9-1.6-0.8-1.7,0.6c-0.2-0.4-0.7-0.7-0.1-1.1c-1.7,0.4-2.6-0.7-3.8,0.5c-0.2-0.4,0.4-0.7,0.2-0.9c-0.1,0.1-0.5,0.4-0.7,0.1
				c-0.2-0.3,0.3-0.4,0.5-0.6c-1.8,0.1-1.9,1.4-2.1,2.7c-0.9-0.6-1.3-0.5-2,0.3c-0.3-0.4-0.8-0.9,0.3-1C29.1,7.6,25.9,7,25.8,8
				c-0.2-0.3-0.9-0.1-1,0C23.4,8,23.3,7.9,22,8l0.4,0.2c-0.5,1.2-1.2,0.3-2.4,0.6l0-0.1c-1.5-0.3-1.8,0-2.1,0.2
				c-0.3,0.2-0.5,0.3-2.1,0.4l0.4,0.6c0.2,0.8-0.4,0.8-1.3,0.9c-0.4,0-0.9,0.1-1.4,0.2c-0.4,0.2-0.8,0.4-1.1,0.8l0.7,0
				c-0.2,0.5-1,0.4-1.9,0.4c-0.9,0-2,0-2.4,0.3c-0.3,0.1,0-0.4,0.2-0.7c-0.7,0.3-0.9,0.6-1,0.8c-0.1,0.2,0,0.3,0.2,0.4
				c0.3,0.2,0.8,0.5,0.4,1.4c-0.6,0-0.9-1.2-1.7,0c-0.4,0.2-0.5,1.3-0.6,2.5c-0.1,1.2-0.1,2.4-0.8,3.2c0.5-0.3,0.9-0.6,1.1,0.3
				c0,0.3-0.2,0.7-0.3,1.1c-0.1,0.4-0.3,0.8-0.5,1.3c-0.3,0.8-0.4,1.5,0.3,2c-0.1,0.1-0.2,0.2-0.3,0.2c0.3,0.8,0.6,2.7,1.3,3.2
				c-2.7,0.8,1.3,5.2-1.2,5.2l0.1,2.6L6,35.6c-0.2,1.6,0.4,2.2,1,2.8c-0.2,0.4-0.4,0.1-0.5,0.1c-0.5,2.4-0.4,2.6,0.8,4.7l-0.8,0.2
				c0.5,0.5-1.3,3.5-0.3,5.8c-0.1,0-0.2-0.1-0.4-0.3c0.9,2.7-2.2,6.4,0.7,7.3L7.3,58c0.2-2.3,1.3,0.3,1.7-0.6c0.2,0.9-0.9,2.3-1,1.2
				l0.1-0.2c-1.5-0.4-0.5,2.8-1.6,2.8c0,2.2-0.2,4.4-0.4,6.6c-0.1,0.5-0.1,1.1-0.2,1.6c0,0.6-0.1,1.3,0,2c0.1,0.7,0.1,1.3,0.3,2
				c0.1,0.3,0.1,0.7,0.2,1l0.3,0.9c0.3-0.3,0.6-0.7,0.9-1c0.2,0.5,0.4,1.1,0.6,1.6c0,0.5-0.5,1-1.1-0.2c-0.2,0.4,0.2,0.9,0.6,1.2
				c0.5,0.3,1,0.4,1.1,0.3c0.2,0.6,0.2,0.9,0.1,1c-0.1,0.1-0.3,0.1-0.6-0.1c-0.5-0.2-1.1-0.7-0.9-0.4c0.2,0.3,0.4,0.6,0.7,0.9
				c0-0.1,0-0.2,0-0.3c0.4,0.2,0.8,0.3,1.1,0.4c0.3,0.1,0.7,0.4,1.1,1c0.5,0.9-0.2,0.9,0.1,1.2c-0.1,0.1,0,0.2,0.4,0.4
				c0.5,0.6,1.2,1,1.8,1.5c-0.1-0.4-0.2-0.9-0.2-1.3c0.3,0.1,0.5,0.2,0.7,0.3c0.2,0.1,0.4,0.2,0.5,0.2c0.3,0.1,0.3,0,0.2-0.7
				c0.1,1.1,1.9,2.2,3.9,2.7c0.2,0.1,0.5,0.1,0.7,0.2c0.2,0,0.5,0.1,0.7,0.1c0.5,0.1,0.9,0.1,1.3,0.1c0.4,0,0.7,0,1,0.1
				c0.2,0,0.4,0.1,0.5,0.1c1.1-0.7,2.3-0.7,3.7-0.6c-0.3-0.2-0.6-1.2,0.6-1.1c-0.4,2.2,2.2,0.9,3.2,2.5c-0.9-1,3.4-0.3,2.1-1.7
				c1,0.2,0.1,0.8,0.8,1.3c2.4-0.8,5.3,0.5,8.2,0.3c0-0.3-0.4-0.7,0.2-1.1l1.6,1.4c0.6-0.1,0.5-1.6,1.6-0.7c-0.2-0.2-0.4-0.6,0-0.7
				c5.8,1.4,11.8-1.1,17.7,1.5c-0.8-0.5-0.3-0.6,0.3-0.6c-0.4-0.1,0-0.7-0.1-1.1l2.5,1.1c0.4-1.1,2.6-0.1,2.9-1.1l-0.8,0.2
				c1-1.2-1.4-2.7-1.3-4.2c-1.2,1.4-3.1-2-5-0.1c-0.4-0.3,0.4-0.5,0.1-0.9c-0.5,0.7-1.1,0.8-2.1,0.5l0.1-0.2c-3,0.2-4.3-0.5-7.7-0.9
				l0.3,0.8c-0.7-0.1-0.9-0.3-1.2-0.5c-0.8,1.2,2.1,0.1,1.3,1.3c-1-1.6-5.2,0-5.8-1.8c-1.1,0,0.3,0.9-0.8,0.9l-0.3-0.5l-0.3,0.6
				c-0.7-0.1-1.1-0.7-1.1-1.1c0.2,0,0.5-0.1,0.7-0.1c-1-0.6-2.7,0.2-3,0l1.1,0.3c-3.1,0.4-6.8-0.2-9.8,0.8l0.2,0.4
				c-2.3,0.7-1.8-0.4-4.3-0.1l0.1-0.1c-0.5,0.4-1.2,0.5-1.8,0.5c0.6-0.4-1.2-0.8-0.4-1.3c-2.5,0.7-1.2,0.6-2.8,1.9l-0.4-0.6
				c-0.6,0.5-0.6,0.8-1.7,0.9c0.5-0.2,0.3-0.5,0.2-0.7c-0.1-0.3-0.2-0.5,0.2-0.8c-0.5-0.3-0.9-0.5-1.2-0.5c-0.4-0.1-0.7,0-1.1,0
				c-0.3,0-0.6,0-0.9-0.1c-0.2-0.2-0.4-0.4-0.3-1c-0.8,0.5-0.5,0.9-0.1,1.2c0.4,0.3,1,0.4,0.7,0.4c0.1,0.3-0.2,0.6-0.6,0.6
				c-0.4,0.1-1-0.1-1.3-0.3c-0.3-0.2-0.3-0.8-0.4-1.5c-0.1-0.7-0.1-1.4-0.7-1.9c0.1,0.1,0.2,0,0.3,0.1c0-0.2-0.1-0.3-0.3-0.4
				c-0.1-0.1-0.3-0.2-0.4-0.2c-0.1-0.1-0.3-0.2-0.4-0.3c-0.1-0.1-0.1-0.3-0.1-0.6c-0.5,0.1-0.7-0.1-0.8-0.2c-0.1-0.2-0.3-0.3-0.8,0
				l0.5,0.6l0.6,0.5c-0.4-0.2-1-0.3-1.6-0.6c-0.3-0.1-0.6-0.3-0.7-0.6c-0.2-0.3-0.3-0.6-0.3-1.1c0.3,0,0.8,0.3,1.1,0.5
				c0.1-0.5-0.6-0.7-0.4-1.2c0.6-0.1,0.8,0.3,1.1,0.7c0.2,0.5,0.6,1,1.2,1.1c0.1-0.3-0.3-0.5-0.5-0.7c-0.2-0.2-0.3-0.4,0.4-0.5
				c-0.9,0.1-1.1-0.3-1.1-0.7c-0.1-0.4,0-0.9-0.8-1.3l0.8-0.1c-0.1-0.1-0.5-0.4-0.6-0.7c0.4,0.1,0.7,0.3,1.1,0.4
				c-0.2-0.2-0.3-0.3-0.3-0.5c0-0.2,0.1-0.4,0.2-0.6l0.2-0.3c0-0.1,0.1-0.3,0.1-0.4c0.1-0.3,0.1-0.5,0-0.8c0,0.6,0,0.9-0.1,1.1
				c-0.1,0.2-0.2,0.1-0.4,0.1c-0.3,0-0.7-0.2-0.9,0.2c-0.2-0.2-0.2-0.6-0.2-0.8c0-0.2,0-0.4,0.1-0.6c0.1-0.3,0.4-0.6,0.7-0.8
				c0.6-0.5,1.2-0.9,1.1-2.5c0.1,0.4-0.5,1.6-0.8,0.9c0.2-0.6,0.5-1.4,0.9-1.8c-0.2-2.1-0.8,0.3-1.3-0.6c0.9-0.7-0.4-1-0.7-2l0.8,0
				c0.5-2.4-1.6-0.6-1-2.8l1.1,0.9l-0.3-1.1l0.9,0.2c-0.7-1.2-0.5-1.6-0.2-2.8c-0.5,0.3-1.4-0.2-1.4-1.2c0.5-0.7,0.7,0.4,0.6-1.1
				c0.5,0.3,1.1,0.7,0.4,1.4c0.3,0.1,0.5,0.3,0.7,0.4c0.5-0.8,0.1-2,0.1-2.5c0,0.2-0.1,0.5-0.2,0.6l-1.1-2.2
				c0.3-0.3,0.5-0.1,0.8,0.2c-0.1-0.4-0.4-0.7-0.5-1.4c0.6,0.2,1.3,0.1,1.6,1.1l-0.7-2.1c0.3-0.1,0.8-1.1,1-0.8
				c0.4-1.2-1.2-2.8-0.7-4.4c-0.1-0.1-0.2-0.2-0.3-0.6c0.1-1.4,0.9-2.7,0.1-4.4l1.1-1c-0.3-1.3-1.4,1.3-1.9-0.9
				c-0.4-1.6,1-0.6,1.3-1.1c-0.6-0.8-1.7-2.1-0.8-3.6C13.3,32.9,13.1,33.3,13.2,33.7z M13.5,18.9c0,0.3,0.4,0.9-0.1,0.9
				C12.7,19.2,13.1,19.2,13.5,18.9z M32.5,11.8c-0.2,0.3-0.6,0.1-1-0.2C31.8,11.6,32.2,11.6,32.5,11.8z M84.8,36.8
				C84.8,36.8,84.8,36.8,84.8,36.8C85.1,36.1,85,36.3,84.8,36.8z M84.5,38.3c0.1,0.1,0.2,0.1,0.3,0.1c-0.2-0.1-0.2-0.4-0.2-0.8
				C84.5,37.6,84.3,37.8,84.5,38.3z M11,81l-0.1-0.4C11.6,80.9,11.3,80.9,11,81z"/>
			<path class="st2" d="M29.7,12.9c-0.1-0.1-0.1-0.3-0.1-0.4C29.4,12.6,29.4,12.8,29.7,12.9z"/>
			<path class="st2" d="M13.6,44C13.6,44,13.6,44,13.6,44c0,0.1,0.1,0.1,0.1,0.1L13.6,44z"/>
			<path class="st2" d="M76.4,17.5c0-0.3,0-0.4,0.1-0.6C76.3,17,76.2,17.2,76.4,17.5z"/>
			<path class="st2" d="M85.8,46.1l-0.2-0.9c0,0.5-0.1,0.6-0.3,0.9C85.6,46,85.8,45.8,85.8,46.1z"/>
			<path class="st2" d="M81,54.3c0.1,0.1,0,0.3,0.1,0.4l0.4,0C81.5,54.1,81.2,53.7,81,54.3z"/>
			<path class="st2" d="M83.2,47c-0.7,0.1-0.4,0.7-0.3,1.3c0,0,0-0.1,0-0.1C83.9,48.4,83.5,47.7,83.2,47z"/>
			<path class="st2" d="M83,48.5c0,0.2,0,0.4,0,0.6C83.3,49.2,83.1,48.8,83,48.5z"/>
			<path class="st2" d="M84.9,40.2c-0.2,0.3,0.8,0.2,0.6,0.4C86.3,40.9,84.5,38.4,84.9,40.2z"/>
			<polygon class="st2" points="81.1,47.5 81.9,47.3 81.3,46.9 			"/>
			<path class="st2" d="M81.7,42.3l-0.2,1.1c0.1,0,0.2,0.1,0.3,0.3C81.8,43,81.9,42.3,81.7,42.3z"/>
			<path class="st2" d="M81.7,43.6c0,0.3,0,0.7,0.1,0.9C81.9,44.3,81.8,43.9,81.7,43.6z"/>
			<polygon class="st2" points="80.9,46.1 81,45.8 81.1,45 			"/>
			<path class="st2" d="M81.8,30.9l-0.2-1.2c-0.3-0.1-0.4,0.2-0.3,0.6C81.5,30.6,81.6,31.1,81.8,30.9z"/>
			<path class="st2" d="M79.6,34.4c0.2-0.3,0.3-0.3,0.6-0.5l-1,0L79.6,34.4z"/>
			<path class="st2" d="M79.4,31c-0.3-0.1-0.8-1.7-0.7-0.2C78.9,30.9,79.2,32.1,79.4,31z"/>
			<path class="st2" d="M77.6,14.7l0.2,0.2l1.2-1.1C78.5,14,78,14.3,77.6,14.7z"/>
			<path class="st2" d="M63.7,14.5c1.4,0.4,0.3-1,1.6-0.5c0.3-0.4-1-0.4-0.7-0.7C63.8,13.7,63.3,13.4,63.7,14.5z"/>
			<path class="st2" d="M64.6,13.3c0.1-0.1,0.3-0.1,0.4-0.2C64.8,13.1,64.7,13.2,64.6,13.3z"/>
			<polygon class="st2" points="66.1,86 67,86.4 66.4,85.8 			"/>
			<path class="st2" d="M67.8,84.8l0.2,1l0.5-0.9C68.3,85,68,85.1,67.8,84.8z"/>
			<path class="st2" d="M16.1,18.7L16,18.5c-0.3-0.1-0.4,0-0.5,0.2C15.7,18.6,15.9,18.6,16.1,18.7z"/>
			<polygon class="st2" points="14,26.8 14,26.6 13.1,27 			"/>
			<path class="st2" d="M15.2,36.8c0-0.4-0.2-0.9-0.1-1.3C15.3,36.4,14,36.9,15.2,36.8z"/>
		</g>
	</g>
</g>
</svg>
